<svg xmlns="http://www.w3.org/2000/svg" xmlns:xlink="http://www.w3.org/1999/xlink" viewBox="0 0 171.46 175.18"><defs><style>.cls-1,.cls-15,.cls-8{fill:none;}.cls-2{isolation:isolate;}.cls-3{fill:url(#Degradado_sin_nombre_2);}.cls-4{fill:url(#Degradado_sin_nombre_2-2);}.cls-5{fill:url(#Degradado_sin_nombre_2-3);}.cls-6{fill:url(#Degradado_sin_nombre_2-4);}.cls-7{fill:url(#Degradado_sin_nombre_27);}.cls-8{stroke:#ffb700;stroke-miterlimit:10;stroke-width:0.5px;}.cls-17,.cls-21,.cls-24,.cls-8{opacity:0.3;}.cls-17,.cls-21,.cls-24,.cls-30,.cls-34,.cls-8{mix-blend-mode:multiply;}.cls-9{fill:#ffcd62;}.cls-10{opacity:0.7;}.cls-11{clip-path:url(#clip-path);}.cls-12{fill:#ffdfaa;opacity:0.2;}.cls-13{fill:url(#Degradado_sin_nombre_27-2);}.cls-14{fill:url(#Degradado_sin_nombre_2-5);}.cls-15{stroke:#fff;stroke-linecap:round;stroke-linejoin:round;stroke-width:3px;}.cls-16,.cls-17{fill:url(#Degradado_sin_nombre_32);}.cls-18,.cls-30{fill:#4f5591;}.cls-19{fill:#fff;}.cls-20,.cls-21{fill:url(#Degradado_sin_nombre_2-6);}.cls-22{fill:url(#Degradado_sin_nombre_2-8);}.cls-23,.cls-24{fill:url(#Degradado_sin_nombre_32-3);}.cls-25{fill:url(#Degradado_sin_nombre_18);}.cls-26{fill:url(#Degradado_sin_nombre_18-2);}.cls-27{fill:url(#Degradado_sin_nombre_18-3);}.cls-28{fill:url(#Degradado_sin_nombre_18-4);}.cls-29{fill:url(#Degradado_sin_nombre_18-5);}.cls-30,.cls-34{opacity:0.5;}.cls-31{fill:url(#Degradado_sin_nombre_18-6);}.cls-32{fill:#1d1a34;}.cls-33{fill:#f2eef4;}.cls-34{fill:#e6e6e6;}.cls-35{fill:url(#Degradado_sin_nombre_2-9);}.cls-36{fill:url(#Degradado_sin_nombre_2-10);}.cls-37{fill:url(#Degradado_sin_nombre_2-11);}.cls-38{fill:url(#Degradado_sin_nombre_2-12);}.cls-39{fill:url(#Degradado_sin_nombre_2-13);}.cls-40{fill:url(#Degradado_sin_nombre_2-14);}.cls-41{fill:url(#Degradado_sin_nombre_22);}.cls-42{fill:url(#Degradado_sin_nombre_22-2);}.cls-43{fill:url(#Degradado_sin_nombre_22-3);}</style><linearGradient id="Degradado_sin_nombre_2" x1="102.56" y1="215.55" x2="117.28" y2="215.55" gradientTransform="matrix(0.84, 0.27, -0.01, 1.19, 74.58, -233.51)" gradientUnits="userSpaceOnUse"><stop offset="0" stop-color="#ffba32"/><stop offset="1" stop-color="#ff8700"/></linearGradient><linearGradient id="Degradado_sin_nombre_2-2" x1="109.59" y1="227.22" x2="117.28" y2="227.22" xlink:href="#Degradado_sin_nombre_2"/><linearGradient id="Degradado_sin_nombre_2-3" x1="11.04" y1="10.67" x2="48.67" y2="38.92" gradientTransform="matrix(1, 0, 0, 1, 0, 0)" xlink:href="#Degradado_sin_nombre_2"/><linearGradient id="Degradado_sin_nombre_2-4" x1="9.48" y1="133.45" x2="38.72" y2="133.45" gradientTransform="matrix(0.48, 1.02, -0.61, 0.79, 94.49, -107.21)" xlink:href="#Degradado_sin_nombre_2"/><linearGradient id="Degradado_sin_nombre_27" x1="11.8" y1="133.45" x2="36.4" y2="133.45" gradientTransform="matrix(1, 0.51, 0, 1, 0, -123.08)" gradientUnits="userSpaceOnUse"><stop offset="0" stop-color="#ff8700"/><stop offset="1" stop-color="#ffba32"/></linearGradient><clipPath id="clip-path"><path class="cls-1" d="M11.8,16.38c0-6.79,5.51-9.49,12.3-6S36.4,22.12,36.4,28.91s-5.51,9.49-12.3,6S11.8,23.17,11.8,16.38Z"/></clipPath><linearGradient id="Degradado_sin_nombre_27-2" x1="11.98" y1="62.28" x2="56.6" y2="62.28" gradientTransform="matrix(1, 0, 0, 1, 0, 0)" xlink:href="#Degradado_sin_nombre_27"/><linearGradient id="Degradado_sin_nombre_2-5" x1="14.92" y1="63.21" x2="57.16" y2="63.21" gradientTransform="matrix(1, 0, 0, 1, 0, 0)" xlink:href="#Degradado_sin_nombre_2"/><linearGradient id="Degradado_sin_nombre_32" x1="15.71" y1="104.49" x2="61.78" y2="104.49" gradientUnits="userSpaceOnUse"><stop offset="0" stop-color="#4f5591"/><stop offset="1" stop-color="#303972"/></linearGradient><linearGradient id="Degradado_sin_nombre_2-6" x1="0" y1="133.53" x2="48.4" y2="133.53" gradientTransform="matrix(1, 0, 0, 1, 0, 0)" xlink:href="#Degradado_sin_nombre_2"/><linearGradient id="Degradado_sin_nombre_2-8" x1="0" y1="131.14" x2="48.4" y2="131.14" gradientTransform="matrix(1, 0, 0, 1, 0, 0)" xlink:href="#Degradado_sin_nombre_2"/><linearGradient id="Degradado_sin_nombre_32-3" x1="119.05" y1="161.14" x2="165.12" y2="161.14" xlink:href="#Degradado_sin_nombre_32"/><linearGradient id="Degradado_sin_nombre_18" x1="120.95" y1="135.65" x2="120.95" y2="125.42" gradientUnits="userSpaceOnUse"><stop offset="0" stop-color="#c4cfe4"/><stop offset="1" stop-color="#98a8be"/></linearGradient><linearGradient id="Degradado_sin_nombre_18-2" x1="111.81" y1="145.91" x2="111.81" y2="121.48" xlink:href="#Degradado_sin_nombre_18"/><linearGradient id="Degradado_sin_nombre_18-3" x1="156.89" y1="138.66" x2="162.09" y2="138.66" xlink:href="#Degradado_sin_nombre_18"/><linearGradient id="Degradado_sin_nombre_18-4" x1="110.51" y1="-41.88" x2="110.51" y2="-65.31" gradientTransform="matrix(1, 0.56, 0, 1, 0, 110.17)" xlink:href="#Degradado_sin_nombre_18"/><linearGradient id="Degradado_sin_nombre_18-5" x1="110.51" y1="-169.74" x2="110.51" y2="-189.55" gradientTransform="matrix(1, 1.03, 0, 1, 0, 200.37)" xlink:href="#Degradado_sin_nombre_18"/><linearGradient id="Degradado_sin_nombre_18-6" x1="63.24" y1="-200.53" x2="157.79" y2="-200.53" gradientTransform="matrix(1, 1.03, 0, 1, 0, 200.37)" xlink:href="#Degradado_sin_nombre_18"/><linearGradient id="Degradado_sin_nombre_2-9" x1="82.2" y1="8.84" x2="82.2" y2="92.52" gradientTransform="matrix(1, 0, 0, 1, 0, 0)" xlink:href="#Degradado_sin_nombre_2"/><linearGradient id="Degradado_sin_nombre_2-10" x1="88.87" y1="1.9" x2="80.43" y2="10.34" gradientTransform="matrix(1, 0, 0, 1, 0, 0)" xlink:href="#Degradado_sin_nombre_2"/><linearGradient id="Degradado_sin_nombre_2-11" x1="90.29" y1="87.14" x2="90.29" y2="-28.43" gradientTransform="matrix(1, 0, 0, 1, 0, 0)" xlink:href="#Degradado_sin_nombre_2"/><linearGradient id="Degradado_sin_nombre_2-12" x1="118.09" y1="38.64" x2="118.09" y2="112.37" gradientTransform="matrix(1, 0, 0, 1, 0, 0)" xlink:href="#Degradado_sin_nombre_2"/><linearGradient id="Degradado_sin_nombre_2-13" x1="124.76" y1="32.21" x2="116.32" y2="40.65" gradientTransform="matrix(1, 0, 0, 1, 0, 0)" xlink:href="#Degradado_sin_nombre_2"/><linearGradient id="Degradado_sin_nombre_2-14" x1="126.19" y1="107.63" x2="126.19" y2="5.81" gradientTransform="matrix(1, 0, 0, 1, 0, 0)" xlink:href="#Degradado_sin_nombre_2"/><linearGradient id="Degradado_sin_nombre_22" x1="99.8" y1="44.35" x2="99.8" y2="104.29" gradientUnits="userSpaceOnUse"><stop offset="0" stop-color="#4e4e71"/><stop offset="1" stop-color="#101022"/></linearGradient><linearGradient id="Degradado_sin_nombre_22-2" x1="106.48" y1="37.21" x2="98.04" y2="45.65" xlink:href="#Degradado_sin_nombre_22"/><linearGradient id="Degradado_sin_nombre_22-3" x1="107.9" y1="97.83" x2="107.9" y2="16.77" xlink:href="#Degradado_sin_nombre_22"/></defs><title>slider3</title><g class="cls-2"><g id="Capa_2" data-name="Capa 2"><g id="Capa_1-2" data-name="Capa 1"><path class="cls-3" d="M165.34,43.4c0,4.82-2.83,7.84-6.24,6.74,3.41,1.1,6.15,5.9,6.12,10.73,0-4.83,2.83-7.85,6.24-6.75C168.05,53,165.3,48.22,165.34,43.4Z"/><path class="cls-4" d="M168.17,62.37c0,2.53-1.48,4.1-3.26,3.53,1.78.57,3.22,3.08,3.2,5.6,0-2.52,1.48-4.1,3.26-3.52C169.59,67.4,168.15,64.9,168.17,62.37Z"/><path class="cls-5" d="M10.19,13.88c0-8.07,8.67-10.58,16.74-6.47s14.62,14,14.62,22.07-7.14,12-15.21,7.88S10.19,22,10.19,13.88Z"/><ellipse class="cls-6" cx="24.1" cy="22.64" rx="11.36" ry="18.81" transform="translate(-8.82 19.55) rotate(-37.85)"/><path class="cls-7" d="M11.8,16.38c0-6.79,5.51-9.49,12.3-6S36.4,22.12,36.4,28.91s-5.51,9.49-12.3,6S11.8,23.17,11.8,16.38Z"/><ellipse class="cls-8" cx="24.1" cy="22.64" rx="9.29" ry="15.39" transform="matrix(0.79, -0.61, 0.61, 0.79, -8.82, 19.55)"/><path class="cls-9" d="M25.06,29v1.84L23.41,30V28.19a14.83,14.83,0,0,1-4.11-3.41l.91-1.55a12.72,12.72,0,0,0,3.2,2.8V23.28c-1.83-1.38-3.88-3-3.88-5.39,0-1.75,1.27-2.6,3.88-1.57V14.49l1.65.84v1.8a14,14,0,0,1,3.34,2.71l-.82,1.61a12.9,12.9,0,0,0-2.52-2.15v2.81c1.82,1.36,3.83,3,3.83,5.31C28.89,29.14,27.64,30,25.06,29Zm-1.65-8.13V18.51c-.88-.24-1.22.06-1.22.6S22.68,20.25,23.41,20.85Zm2.83,5.42c0-.58-.48-1.13-1.18-1.74V26.8C25.88,27,26.24,26.8,26.24,26.27Z"/><g class="cls-10"><g class="cls-11"><polygon class="cls-12" points="13.69 31.28 10.17 23.26 37.61 21.73 41.13 29.75 13.69 31.28"/><polygon class="cls-12" points="10.84 22.05 8.47 18.66 35.91 17.13 38.28 20.52 10.84 22.05"/></g></g><path class="cls-13" d="M56.6,39.09l-2.84-1.56a1.91,1.91,0,0,0-1.17-.65l-.06,0v0a1.84,1.84,0,0,0-1.13.22l-38.47,22A1.86,1.86,0,0,0,12,60.78V84.31a1.83,1.83,0,0,0,.71,1.45h0l.08,0a2.33,2.33,0,0,0,.34.2L16,87.7,16.4,85,44.72,68.67,47,73.61l2.94,1.68V70.55l-1.42-.87,1.59-4.11,3-1.76a1.88,1.88,0,0,0,.94-1.62L54.21,41Z"/><path class="cls-14" d="M54.34,38.79l-38.47,22a1.89,1.89,0,0,0-.95,1.64V86a1.88,1.88,0,0,0,2.82,1.63L47.66,70.35l2.26,4.94,3.11-8,3-1.76A1.87,1.87,0,0,0,57,63.87l.14-23.44A1.88,1.88,0,0,0,54.34,38.79Z"/><line class="cls-15" x1="20.69" y1="65.73" x2="51.27" y2="49.18"/><line class="cls-15" x1="20.69" y1="71.62" x2="51.27" y2="55.06"/><line class="cls-15" x1="20.69" y1="77.5" x2="41.09" y2="66.47"/><path class="cls-16" d="M61.78,104.15v-3.06l-1,.44L42.63,90.93a5.13,5.13,0,0,0-4.66.18L17.42,103H15.71v3h0a1.37,1.37,0,0,0,.8,1.27l18.35,10.72a5.13,5.13,0,0,0,4.66-.18l21.12-12.27a2,2,0,0,0,1.12-1.46Z"/><path class="cls-17" d="M61.78,104.15v-3.06l-1,.44L42.63,90.93a5.13,5.13,0,0,0-4.66.18L17.42,103H15.71v3h0a1.37,1.37,0,0,0,.8,1.27l18.35,10.72a5.13,5.13,0,0,0,4.66-.18l21.12-12.27a2,2,0,0,0,1.12-1.46Z"/><path class="cls-18" d="M60.65,102.7,39.53,115a5.13,5.13,0,0,1-4.66.18L16.52,104.44c-1.19-.7-1-1.92.33-2.72L38,89.46a5.13,5.13,0,0,1,4.66-.19L61,100C62.17,100.69,62,101.9,60.65,102.7Z"/><path class="cls-19" d="M41.21,95.68c-4.9-.18-7.91,3.35-5.27,4.89-2.64-1.54-8.71.2-8.41,3.06s7.36,4.34,16.94,1.92C48.64,100,46.28,95.87,41.21,95.68Z"/><path class="cls-20" d="M48.39,133.17V130l-1,.46L28.27,119.28a5.4,5.4,0,0,0-4.89.19L1.8,132H0v3.19H0a1.44,1.44,0,0,0,.84,1.34l19.27,11.26a5.42,5.42,0,0,0,4.9-.2L47.2,134.71a2,2,0,0,0,1.18-1.54Z"/><path class="cls-21" d="M48.39,133.17V130l-1,.46L28.27,119.28a5.4,5.4,0,0,0-4.89.19L1.8,132H0v3.19H0a1.44,1.44,0,0,0,.84,1.34l19.27,11.26a5.42,5.42,0,0,0,4.9-.2L47.2,134.71a2,2,0,0,0,1.18-1.54Z"/><path class="cls-22" d="M47.2,131.65,25,144.54a5.39,5.39,0,0,1-4.9.19L.85,133.47c-1.26-.73-1.1-2,.34-2.85l22.19-12.89a5.4,5.4,0,0,1,4.89-.19L47.55,128.8C48.8,129.54,48.65,130.81,47.2,131.65Z"/><path class="cls-19" d="M33.63,129a1,1,0,0,0-.34-.75,2.21,2.21,0,0,0-1-.58,1.38,1.38,0,0,0-.82-.9,3,3,0,0,0-.81-.29,1.37,1.37,0,0,0-.81-1,3.23,3.23,0,0,0-1.71-.35,3.51,3.51,0,0,0-1.72.46l-2.5,1.53-.14-.16a.91.91,0,0,1-.09-.17.88.88,0,0,0-.07-.14,4.56,4.56,0,0,0-.25-.43,2.32,2.32,0,0,0-.36-.4,2.54,2.54,0,0,0-.58-.42l-.35-.19a4.62,4.62,0,0,0-.44-.19,4.35,4.35,0,0,0-.55-.18,3.81,3.81,0,0,0-.61-.09,3.43,3.43,0,0,0-.72,0A4.74,4.74,0,0,0,19,125a4.57,4.57,0,0,0-.84.4.46.46,0,0,0-.24.34.76.76,0,0,0,.14.43,1.55,1.55,0,0,0,.28.36c.1.1.24.22.42.37s.33.3.41.37a1.44,1.44,0,0,1,.27.34.71.71,0,0,1,.15.4,5.82,5.82,0,0,0,.14,1.14,9.61,9.61,0,0,1,.16,1.15c0,.38,0,.62-.17.71a.42.42,0,0,0-.21.34.37.37,0,0,0,.22.31l5.65,3.13a1,1,0,0,0,.57.12,1.15,1.15,0,0,0,.57-.16,14.11,14.11,0,0,1,1.82-.65l1.44-.47c.34-.12.79-.29,1.35-.53a9.64,9.64,0,0,0,1.44-.72l1.16-.71c.79-.49,1.15-1,1.09-1.46S34.34,129.36,33.63,129Z"/><path class="cls-19" d="M24.77,135.13,19.12,132a1,1,0,0,0-.56-.12A1.16,1.16,0,0,0,18,132l-2.6,1.58a.46.46,0,0,0-.24.34.39.39,0,0,0,.23.33L21,137.42a1.1,1.1,0,0,0,.57.11,1.15,1.15,0,0,0,.57-.15l2.6-1.59a.4.4,0,0,0,.24-.34A.36.36,0,0,0,24.77,135.13Zm-2.59.92a1.19,1.19,0,0,1-.58.16,1.22,1.22,0,0,1-.56-.12.38.38,0,0,1-.23-.33.41.41,0,0,1,.24-.34,1.15,1.15,0,0,1,.57-.15,1.1,1.1,0,0,1,.57.11c.16.09.24.2.23.33A.41.41,0,0,1,22.18,136.05Z"/><path class="cls-23" d="M165.11,160.8v-3.06l-1,.44L146,147.57a5.16,5.16,0,0,0-4.66.19l-20.55,11.93h-1.71v3h0a1.38,1.38,0,0,0,.8,1.27l18.35,10.72a5.13,5.13,0,0,0,4.66-.18L164,162.26a2,2,0,0,0,1.13-1.46Z"/><path class="cls-24" d="M165.11,160.8v-3.06l-1,.44L146,147.57a5.16,5.16,0,0,0-4.66.19l-20.55,11.93h-1.71v3h0a1.38,1.38,0,0,0,.8,1.27l18.35,10.72a5.13,5.13,0,0,0,4.66-.18L164,162.26a2,2,0,0,0,1.13-1.46Z"/><path class="cls-18" d="M164,159.35l-21.11,12.27a5.13,5.13,0,0,1-4.66.18l-18.35-10.72c-1.19-.7-1-1.91.33-2.71l21.12-12.27a5.13,5.13,0,0,1,4.66-.18l18.34,10.72C165.51,157.34,165.36,158.55,164,159.35Z"/><path class="cls-19" d="M149.66,156.17a3.29,3.29,0,0,0-3.71.62,2,2,0,0,0-.63,1.48l-5.51,2a2,2,0,0,0-.33-.24l-.16-.07,1.19-4.29a3.32,3.32,0,0,0,1.83-.91,1.7,1.7,0,0,0-.26-2.85,3.26,3.26,0,0,0-3.7.62,1.71,1.71,0,0,0,.26,2.85,2,2,0,0,0,.48.2L138,159.7a3.39,3.39,0,0,0-2.21.94,1.72,1.72,0,0,0,.26,2.86,3.26,3.26,0,0,0,3.7-.62,1.92,1.92,0,0,0,.62-1.66l5.4-1.94a1.91,1.91,0,0,0,.46.37,3.26,3.26,0,0,0,3.7-.62A1.71,1.71,0,0,0,149.66,156.17Z"/><polygon class="cls-25" points="123.85 125.86 123.85 138.03 118.05 136.04 119.05 125.23 123.85 125.86"/><path class="cls-26" d="M129.56,144.48c0-3.23-2.53-7.28-5.71-9.25v-9.37l-4.8-.63-.64,6.91-17.33-9.79c-2-1.11-3.71-1.15-4.81-.33h0l-.2.17h0l-2,1.66,1.09.06A5.17,5.17,0,0,0,95,125h0l32.06,18.11.68,2.81,1.78-1.42h0Z"/><polygon class="cls-27" points="162.09 130.82 162.09 143.99 157.42 146.5 156.88 132.48 162.09 130.82"/><polygon class="cls-28" points="121.36 112.98 99.66 100.72 99.66 130.04 121.36 142.3 121.36 112.98"/><path class="cls-29" d="M121.73,136.45,99.29,123.77c-3.34-1.88-6-.7-6,2.63v0l34.52,19.5h0C127.77,142.57,125.07,138.34,121.73,136.45Z"/><path class="cls-18" d="M159.37,60.85,70.26,10.52a2,2,0,0,0-2.2-.12l-4.23,2.25,3.23,4,.48-.34V77.41l88.54,50-.69.36,2.4,5.26,4.3-2.22V65.11A5.57,5.57,0,0,0,159.37,60.85Z"/><path class="cls-30" d="M159.37,60.85,70.26,10.52a2,2,0,0,0-2.2-.12l-4.23,2.25,3.23,4,.48-.34V77.41l88.54,50-.69.36,2.4,5.26,4.3-2.22V65.11A5.57,5.57,0,0,0,159.37,60.85Z"/><path class="cls-31" d="M157.79,133,63.24,79.63v12.3A5.53,5.53,0,0,0,66,96.19l89.11,50.34c1.5.84,2.72.32,2.72-1.19Z"/><path class="cls-32" d="M112.3,114.86c0,1-.8,1.34-1.79.78a3.67,3.67,0,0,1-1.79-2.8c0-1,.8-1.34,1.79-.78A3.65,3.65,0,0,1,112.3,114.86Z"/><path class="cls-18" d="M157.79,133.12,63.24,79.71V14c0-1.51,1.21-2,2.72-1.19l89.11,50.34a5.56,5.56,0,0,1,2.72,4.26Z"/><polygon class="cls-33" points="153.97 127.78 67.06 78.68 67.06 16.63 153.97 65.73 153.97 127.78"/><polygon class="cls-34" points="147 119.38 72.67 77.05 72.67 67.88 147 110.2 147 119.38"/><polygon class="cls-34" points="147 106.57 72.67 64.24 72.67 55.06 147 97.39 147 106.57"/><polygon class="cls-34" points="147 93.75 72.67 51.43 72.67 42.25 147 84.58 147 93.75"/><polygon class="cls-34" points="147 80.94 72.67 38.62 72.67 29.44 147 71.77 147 80.94"/><polygon class="cls-35" points="78 85.32 78 4.64 86.39 9.49 86.39 90.08 78 85.32"/><polygon class="cls-36" points="78 4.64 86.26 0 94.19 4.71 86.39 9.49 78 4.64"/><polygon class="cls-37" points="94.19 4.71 94.19 87.82 86.39 90.08 86.39 9.49 94.19 4.71"/><polygon class="cls-38" points="113.9 105.46 113.9 34.94 122.29 39.79 122.29 110.23 113.9 105.46"/><polygon class="cls-39" points="113.9 34.94 122.16 30.3 130.09 35.01 122.29 39.79 113.9 34.94"/><polygon class="cls-40" points="130.09 35.01 130.09 107.96 122.29 110.23 122.29 39.79 130.09 35.01"/><polygon class="cls-41" points="95.61 95.13 95.61 39.95 104 44.79 104 99.89 95.61 95.13"/><polygon class="cls-42" points="95.61 39.95 103.87 35.31 111.8 40.01 104 44.79 95.61 39.95"/><polygon class="cls-43" points="111.8 40.01 111.8 97.62 104 99.89 104 44.79 111.8 40.01"/></g></g></g></svg>