<svg xmlns="http://www.w3.org/2000/svg" xmlns:xlink="http://www.w3.org/1999/xlink" viewBox="0 0 151.18 152.05"><defs><style>.cls-1{isolation:isolate;}.cls-2{fill:#b5d1e2;}.cls-3{fill:#d6e3eb;}.cls-4{fill:#ebeeef;}.cls-5{fill:#8db2c6;}.cls-6{fill:#98bfd5;}.cls-7{fill:url(#linear-gradient);}.cls-8{fill:#a5c3d7;}.cls-9{fill:#d6e8f3;}.cls-10{fill:url(#linear-gradient-2);}.cls-11{fill:#3a4259;}.cls-12{fill:url(#linear-gradient-3);}.cls-13{fill:url(#linear-gradient-4);}.cls-14{fill:#1e82e5;}.cls-15{fill:#fff;}.cls-16{fill:#c0dbe9;mix-blend-mode:multiply;}.cls-17,.cls-23{opacity:0.2;}.cls-18,.cls-23{fill:#ededed;}.cls-19{fill:#4f6e81;}.cls-20{fill:#f69511;}.cls-21{fill:#f6d74e;}.cls-22{fill:url(#linear-gradient-5);}.cls-24{fill:#73aa3c;}.cls-25{fill:#9ae851;}.cls-26{fill:url(#linear-gradient-6);}.cls-27{fill:#5e802d;}.cls-28{fill:url(#linear-gradient-7);}.cls-29{fill:url(#linear-gradient-8);}.cls-30{fill:url(#linear-gradient-9);}.cls-31{fill:url(#linear-gradient-10);}.cls-32{fill:url(#linear-gradient-11);}.cls-33{fill:url(#linear-gradient-12);}.cls-34{fill:url(#linear-gradient-13);}.cls-35{fill:url(#linear-gradient-14);}.cls-36{fill:url(#linear-gradient-15);}.cls-37{fill:url(#linear-gradient-16);}.cls-38{fill:url(#linear-gradient-17);}.cls-39{fill:#da9276;}.cls-40{fill:#2f3547;}.cls-41{fill:#454e69;}.cls-42{fill:url(#linear-gradient-18);}.cls-43{fill:url(#linear-gradient-19);}.cls-44{fill:url(#linear-gradient-20);}.cls-45{fill:url(#linear-gradient-21);}.cls-46{fill:url(#linear-gradient-22);}.cls-47{fill:url(#linear-gradient-23);}.cls-48{fill:url(#linear-gradient-24);}.cls-49{fill:url(#linear-gradient-25);}.cls-50{fill:#2e2e2e;}.cls-51{fill:#942837;}.cls-52{fill:url(#linear-gradient-26);}.cls-53{fill:#b03345;}</style><linearGradient id="linear-gradient" x1="82.51" y1="136.72" x2="72.31" y2="121.56" gradientUnits="userSpaceOnUse"><stop offset="0" stop-color="#eee"/><stop offset="0.3" stop-color="#eaecee"/><stop offset="0.59" stop-color="#dee7ec"/><stop offset="0.88" stop-color="#cadeea"/><stop offset="1" stop-color="#c0d9e9"/></linearGradient><linearGradient id="linear-gradient-2" x1="63.71" y1="87.78" x2="71.03" y2="132.54" xlink:href="#linear-gradient"/><linearGradient id="linear-gradient-3" x1="11.55" y1="141.63" x2="168" y2="50.13" xlink:href="#linear-gradient"/><linearGradient id="linear-gradient-4" x1="73.14" y1="102.37" x2="47.94" y2="10.95" gradientUnits="userSpaceOnUse"><stop offset="0" stop-color="#8feeff"/><stop offset="1" stop-color="#2494f4"/></linearGradient><linearGradient id="linear-gradient-5" x1="130.71" y1="73.59" x2="104.74" y2="95.18" gradientUnits="userSpaceOnUse"><stop offset="0" stop-color="#f7d028"/><stop offset="1" stop-color="#f6b00d"/></linearGradient><linearGradient id="linear-gradient-6" x1="129.88" y1="113.69" x2="91.02" y2="129.6" gradientUnits="userSpaceOnUse"><stop offset="0" stop-color="#9ae851"/><stop offset="1" stop-color="#78b23f"/></linearGradient><linearGradient id="linear-gradient-7" x1="129.88" y1="113.69" x2="91.02" y2="129.6" xlink:href="#linear-gradient-6"/><linearGradient id="linear-gradient-8" x1="129.88" y1="112.33" x2="91.02" y2="128.24" xlink:href="#linear-gradient-6"/><linearGradient id="linear-gradient-9" x1="129.88" y1="112.33" x2="91.02" y2="128.24" xlink:href="#linear-gradient-6"/><linearGradient id="linear-gradient-10" x1="129.88" y1="110.97" x2="91.02" y2="126.88" xlink:href="#linear-gradient-6"/><linearGradient id="linear-gradient-11" x1="129.88" y1="110.97" x2="91.02" y2="126.88" xlink:href="#linear-gradient-6"/><linearGradient id="linear-gradient-12" x1="129.88" y1="109.61" x2="91.02" y2="125.52" xlink:href="#linear-gradient-6"/><linearGradient id="linear-gradient-13" x1="129.88" y1="109.61" x2="91.02" y2="125.52" xlink:href="#linear-gradient-6"/><linearGradient id="linear-gradient-14" x1="129.88" y1="108.25" x2="91.02" y2="124.16" xlink:href="#linear-gradient-6"/><linearGradient id="linear-gradient-15" x1="129.88" y1="108.25" x2="91.02" y2="124.16" xlink:href="#linear-gradient-6"/><linearGradient id="linear-gradient-16" x1="99.78" y1="105.03" x2="126.85" y2="105.03" gradientUnits="userSpaceOnUse"><stop offset="0" stop-color="#c67f55"/><stop offset="1" stop-color="#8e5d3e"/></linearGradient><linearGradient id="linear-gradient-17" x1="103.36" y1="117.45" x2="103.36" y2="108.42" xlink:href="#linear-gradient-16"/><linearGradient id="linear-gradient-18" x1="82.25" y1="83.41" x2="80.62" y2="79.83" gradientUnits="userSpaceOnUse"><stop offset="0" stop-color="#f5ad8e"/><stop offset="1" stop-color="#f6c3ae"/></linearGradient><linearGradient id="linear-gradient-19" x1="41.92" y1="371.51" x2="40.29" y2="367.92" gradientTransform="matrix(0.99, 0.1, -0.1, 0.99, 78.79, -290.7)" xlink:href="#linear-gradient-18"/><linearGradient id="linear-gradient-20" x1="41.88" y1="879.75" x2="40.25" y2="876.17" gradientTransform="translate(285.9 -774.16) rotate(16.04)" xlink:href="#linear-gradient-18"/><linearGradient id="linear-gradient-21" x1="67.73" y1="1082.47" x2="66.09" y2="1078.89" gradientTransform="translate(392.68 -956.83) rotate(20.14)" xlink:href="#linear-gradient-18"/><linearGradient id="linear-gradient-22" x1="84.48" y1="84.39" x2="82.12" y2="82.56" xlink:href="#linear-gradient-18"/><linearGradient id="linear-gradient-23" x1="90.75" y1="84.52" x2="84.81" y2="82.79" gradientUnits="userSpaceOnUse"><stop offset="0" stop-color="#942837"/><stop offset="1" stop-color="#b03345"/></linearGradient><linearGradient id="linear-gradient-24" x1="89.54" y1="99.72" x2="102.6" y2="85.86" xlink:href="#linear-gradient-23"/><linearGradient id="linear-gradient-25" x1="103.39" y1="68.98" x2="96.09" y2="63.32" xlink:href="#linear-gradient-18"/><linearGradient id="linear-gradient-26" x1="91.6" y1="107.55" x2="87.64" y2="104.47" xlink:href="#linear-gradient-18"/></defs><title>slider1</title><g class="cls-1"><g id="Capa_2" data-name="Capa 2"><g id="Capa_1-2" data-name="Capa 1"><polygon class="cls-2" points="97.94 128.51 97.94 126.97 96.73 127.56 97.94 128.51"/><path class="cls-2" d="M76.78,141.31l1.88-1.1L82.49,138l14.86-8.64c1.05-.61.55-1.32-.31-1.82l-16.66-9.62L56.14,132l16.5,9.52A5,5,0,0,0,76.78,141.31Z"/><polygon class="cls-3" points="55.21 128.03 79.45 113.94 80.38 116.31 56.15 130.4 55.21 128.03"/><polygon class="cls-2" points="61.5 105.97 85.74 91.88 79.45 113.94 55.21 128.03 61.5 105.97"/><polygon class="cls-4" points="61.92 104.06 86.16 89.97 86.88 91.7 62.64 105.79 61.92 104.06"/><polygon class="cls-5" points="60.34 104.3 84.58 90.22 86.16 89.97 61.92 104.06 60.34 104.3"/><polygon class="cls-6" points="61.92 104.06 62.64 105.79 61.5 105.97 55.21 128.03 56.15 130.4 72.53 139.85 72.53 141.46 55.37 131.52 53.75 127.41 60.34 104.3 61.92 104.06"/><path class="cls-7" d="M76.78,139.71l1.88-1.09,3.83-2.23,14.86-8.63c1.05-.61.55-1.33-.31-1.83l-16.66-9.62L56.14,130.4l16.5,9.53A5.07,5.07,0,0,0,76.78,139.71Z"/><path class="cls-8" d="M114.16,4.46a3.43,3.43,0,0,0-2-2.93h0L109.47.4,109,.2a3.17,3.17,0,0,0-2.77.29L3.45,57.46a7.5,7.5,0,0,0-3.4,7.1l9,67.4,3.21,1L123.13,71.52Z"/><path class="cls-9" d="M12.28,133,123.13,71.52l-9-67.06a3.5,3.5,0,0,0-1.73-2.82l-.08,0-.49-.21a3.14,3.14,0,0,0-2.77.3L6.32,58.66a7.54,7.54,0,0,0-3.39,7.11l9,67.08Z"/><path class="cls-10" d="M124.12,78.92l-1-7.4L12.28,133l-3.21-1L10,139a3.47,3.47,0,0,0,1.92,2.92l3.26,1.34-.1-.05A3.11,3.11,0,0,0,18,143L120.73,86A7.53,7.53,0,0,0,124.12,78.92Z"/><path class="cls-11" d="M114.16,4.46c-.36-2.69-2.46-3.86-4.69-2.63L6.7,58.8a7.53,7.53,0,0,0-3.39,7.1l9,67.06L123.13,71.52Z"/><path class="cls-12" d="M123.13,71.52,12.28,133l1,7.4c.36,2.69,2.46,3.86,4.69,2.62L120.73,86a7.53,7.53,0,0,0,3.39-7.1Z"/><polygon class="cls-13" points="5.16 64.55 112.99 4.76 121.8 70.11 13.97 129.89 5.16 64.55"/><path class="cls-14" d="M39.53,110.57a1,1,0,0,0-.44.93c.06.35.33.51.62.34a1,1,0,0,0,.44-.93A.4.4,0,0,0,39.53,110.57Z"/><path class="cls-14" d="M42.79,108.76a1,1,0,0,0-.43.93A.4.4,0,0,0,43,110a1,1,0,0,0,.43-.93C43.36,108.75,43.08,108.6,42.79,108.76Z"/><path class="cls-14" d="M46.05,107a1,1,0,0,0-.43.93c.05.36.33.51.61.35a1,1,0,0,0,.44-.93A.41.41,0,0,0,46.05,107Z"/><path class="cls-15" d="M52.43,57.07c-.09-.57-.54-.83-1-.56L18,75a1.58,1.58,0,0,0-.71,1.53l6,40.44c.09.58.54.83,1,.57L57.68,99a1.59,1.59,0,0,0,.71-1.52Z"/><path class="cls-14" d="M36.27,112.37a1,1,0,0,0-.43.94.4.4,0,0,0,.62.34,1,1,0,0,0,.43-.93A.41.41,0,0,0,36.27,112.37Z"/><polygon class="cls-15" points="108.2 32.56 59.49 59.56 59.79 61.62 108.5 34.62 108.2 32.56"/><polygon class="cls-15" points="87.7 49.39 60.37 64.53 60.52 65.56 87.85 50.42 87.7 49.39"/><polygon class="cls-15" points="89.69 62.92 62.36 78.06 62.52 79.09 89.84 63.95 89.69 62.92"/><polygon class="cls-15" points="63.03 82.58 63.18 83.6 90.51 68.45 90.36 67.43 63.03 82.58"/><polygon class="cls-15" points="89.03 58.41 61.7 73.56 61.85 74.58 89.18 59.44 89.03 58.41"/><polygon class="cls-15" points="88.36 53.9 61.03 69.05 61.19 70.07 88.51 54.92 88.36 53.9"/><path class="cls-14" d="M85,75.86c-.09-.58-.54-.83-1-.57L64.48,86.08a1.59,1.59,0,0,0-.71,1.52L64.72,94a.66.66,0,0,0,1,.57L85.2,83.79a1.58,1.58,0,0,0,.7-1.52Z"/><path class="cls-15" d="M71,84.41v0c0-.1-.1-.15-.18-.1l-.63.35a.37.37,0,0,0-.16.28l0,.71a.34.34,0,0,0-.23.05L67,87.27a.7.7,0,0,0-.31.38.71.71,0,0,0,0,.52l.73,1.71a.33.33,0,0,0,.49.17l2.3-1.29c.1-.06.19,0,.21.12a.3.3,0,0,1-.14.31l-1.92,1.08a.91.91,0,0,0-.39.9.4.4,0,0,0,.61.34l0,0a.9.9,0,0,0,.35-.8.53.53,0,0,0-.07-.26l.58-.32a.5.5,0,0,0,0,.21c.06.34.33.5.6.34l0,0a.92.92,0,0,0,.36-.82.62.62,0,0,0-.08-.24.93.93,0,0,0,.36-.89c0-.3-.26-.45-.49-.4l.07-1.92,0-1.39.55-.31A.27.27,0,0,0,71,84.41ZM68.27,87l.09.48-.55.31-.17-.44Zm-1.3.89a.19.19,0,0,1,.06-.2l.28-.15.16.43-.38.22Zm.45,1.06-.17-.39.37-.21.15.4Zm.39.7a.07.07,0,0,1-.1,0l-.13-.29.34-.19.15.37ZM68,88.15l.47-.27.08.44-.4.23Zm.45,1.15-.15-.38.33-.18.08.42Zm.19-2.5.61-.34V87l-.53.3Zm.16.89.46-.25v.48l-.38.22ZM69,89l-.08-.42.31-.17v.46Zm.9-.6a.14.14,0,0,1-.08.13l-.25.15v-.46l.35-.2Zm0-.84-.37.2v-.48L70,87Zm0-1-.41.23v-.52l.31-.18a.09.09,0,0,1,.09,0,.13.13,0,0,1,0,.09ZM68.48,91.1a.13.13,0,0,1-.2-.11.29.29,0,0,1,.12-.3.13.13,0,0,1,.2.11A.3.3,0,0,1,68.48,91.1Zm1.5-.85c-.08,0-.17,0-.19-.11a.3.3,0,0,1,.12-.3.13.13,0,0,1,.2.11A.3.3,0,0,1,70,90.25Z"/><path class="cls-15" d="M73.57,85.26a.35.35,0,0,1,.46.35,1,1,0,0,1-.09.55,1.47,1.47,0,0,1-.63.56,2.63,2.63,0,0,1-.38.19l-.29-2.22a2.28,2.28,0,0,1,.43-.3c.25-.13.41-.17.54-.12a.34.34,0,0,1,.21.32.82.82,0,0,1-.25.66Zm-.21,1.19a.71.71,0,0,0,.42-.7c0-.31-.28-.31-.55-.16L73,85.7l.11.86.21-.11m-.45-1.7.1.73.21-.12a.65.65,0,0,0,.36-.62c0-.25-.22-.27-.46-.13a1,1,0,0,0-.21.14"/><path class="cls-15" d="M75.53,83.05l.17,1.32a1.24,1.24,0,0,1-.58,1.37c-.38.22-.71.11-.8-.59l-.18-1.33.25-.14L74.57,85c.06.51.28.61.53.48a.89.89,0,0,0,.36-1l-.18-1.33Z"/><path class="cls-15" d="M77.24,82.1l-.45,1.64.12,1-.24.14-.13-1-.77-1,.28-.16.34.48.26.36h0c0-.18.08-.37.13-.58l.18-.77Z"/><polygon class="cls-15" points="78.29 81.52 78.59 83.78 78.35 83.91 78.05 81.65 78.29 81.52"/><polygon class="cls-15" points="79.89 80.63 79.92 80.89 79.35 81.2 79.62 83.21 79.37 83.35 79.1 81.34 78.53 81.66 78.5 81.4 79.89 80.63"/><path class="cls-15" d="M80.46,82.34c.1,0,.17,0,.19.11a.33.33,0,0,1-.13.31.13.13,0,0,1-.2-.12A.29.29,0,0,1,80.46,82.34Z"/><polygon class="cls-15" points="80.51 82.01 80.33 82.12 80.07 80.53 80.34 80.38 80.51 82.01"/><path class="cls-16" d="M16.28,81c0,1,.69,1.39,1.54.92l1.28-.71a3.28,3.28,0,0,0,1.53-2.61c0,1,.69,1.38,1.53.91l1.29-.71A3.27,3.27,0,0,0,25,76.16c0,1,.7,1.38,1.54.91l1.28-.71a3.28,3.28,0,0,0,1.53-2.61c0,1,.69,1.38,1.54.91L32.14,74a3.25,3.25,0,0,0,1.53-2.61c0,1,.69,1.38,1.54.92l1.28-.71A3.27,3.27,0,0,0,38,68.93c0,1,.7,1.39,1.54.92l1.28-.71a3.28,3.28,0,0,0,1.53-2.61c0,1,.69,1.38,1.54.91l1.28-.71a3.28,3.28,0,0,0,1.53-2.61c0,1,.69,1.38,1.54.91l1.28-.71a3.3,3.3,0,0,0,1.53-2.61c0,1,.69,1.38,1.54.91l1.27-.71A3.26,3.26,0,0,0,55.4,59.3c0,1,.7,1.38,1.54.91l1.28-.71a3.25,3.25,0,0,0,1.53-2.61c0,1,.69,1.39,1.54.92l1.28-.71a3.28,3.28,0,0,0,1.53-2.62c0,1,.69,1.39,1.54.92l1.27-.71a3.29,3.29,0,0,0,1.54-2.61c0,1,.69,1.38,1.53.91l1.28-.71a3.28,3.28,0,0,0,1.53-2.61c0,1,.69,1.38,1.54.91l1.28-.71a3.26,3.26,0,0,0,1.53-2.61c0,1,.69,1.38,1.54.91L80,47.46a3.29,3.29,0,0,0,1.53-2.61c0,1,.69,1.38,1.53.91l1.28-.7a3.26,3.26,0,0,0,1.53-2.62c0,1,.69,1.39,1.54.92l1.28-.71A3.28,3.28,0,0,0,90.18,40c0,1,.69,1.38,1.54.91L93,40.24a3.3,3.3,0,0,0,1.53-2.61c0,1,.69,1.38,1.53.91l1.28-.71a3.25,3.25,0,0,0,1.53-2.61c0,1,.69,1.38,1.54.91l1.28-.71a3.26,3.26,0,0,0,1.53-2.61c0,1,.69,1.38,1.54.91L106,33a3.31,3.31,0,0,0,1.53-2.62c0,1,.69,1.39,1.54.92l1.27-.71A3.25,3.25,0,0,0,111.91,28c0,1,.7,1.38,1.55.91l1.27-.71A3.14,3.14,0,0,0,116,26.8l-1-7.8L112.09,5.26,5.16,64.55l3,22.29a1.11,1.11,0,0,0,1-.14L10.4,86a3.28,3.28,0,0,0,1.53-2.62c0,1,.69,1.38,1.54.91l1.28-.7A3.28,3.28,0,0,0,16.28,81Z"/><g class="cls-17"><polygon class="cls-18" points="112.99 4.76 50.31 39.52 111.31 75.93 121.8 70.11 112.99 4.76"/><polygon class="cls-18" points="85.39 90.29 24.39 53.88 5.16 64.55 7.12 79.08 54.55 107.39 85.39 90.29"/></g><polygon class="cls-19" points="116.35 62.92 92.36 76.98 92.95 80.11 116.94 66.04 116.35 62.92"/><path class="cls-20" d="M149.23,86.5h0V85l-2.93-.43L115.62,66.86a1.91,1.91,0,0,0-1.74,0L96.06,77.21,94.36,77V78.5h0a.61.61,0,0,0,.36.5L128,98.2a1.91,1.91,0,0,0,1.74,0l19.16-11.13A.58.58,0,0,0,149.23,86.5Z"/><path class="cls-21" d="M115.62,66.86a1.91,1.91,0,0,0-1.74,0L96.06,77.21,94.36,77v.21a.61.61,0,0,0,.36.5L128,96.87a1.91,1.91,0,0,0,1.74,0l19.16-11.13a.59.59,0,0,0,.35-.58h0V85l-2.93-.43Z"/><path class="cls-22" d="M148.87,84.52l-33.25-19.2a1.91,1.91,0,0,0-1.74,0L94.71,76.46c-.48.28-.47.73,0,1L128,96.67a1.91,1.91,0,0,0,1.74,0l19.16-11.14C149.36,85.25,149.36,84.8,148.87,84.52Z"/><polygon class="cls-11" points="104.19 80.38 108.65 82.96 110.86 81.67 106.4 79.09 104.19 80.38"/><polygon class="cls-11" points="112.25 66.27 107.36 69.11 142.34 89.31 147.24 86.47 112.25 66.27"/><polygon class="cls-11" points="100.78 75.85 98.56 77.14 103.02 79.71 105.24 78.42 100.78 75.85"/><path class="cls-23" d="M108.5,85.42H149c.32-.27.27-.65-.16-.9l-8.38-4.84H98.56Z"/><polygon class="cls-23" points="95.05 76.26 134.56 76.26 118.23 66.83 111.27 66.83 95.05 76.26"/><path class="cls-24" d="M151.18,121.52a.22.22,0,0,1,0,.11h0a.31.31,0,0,1,0,.1v0l-.09.09a.24.24,0,0,1-.08.06l-.06,0-17.78,10.33a.67.67,0,0,1-.21.09l-.08,0-.11,0-.13,0h-.45l-.18,0h0l-.15,0h0l-.17-.08L95.83,111.66a.54.54,0,0,1-.32-.45v.89a.52.52,0,0,0,.32.44l35.73,20.63.15.08h0l.09,0H132l.1,0h.22s0,0,0,0h0s0,0,0,0h.3l.11,0h.08a1.36,1.36,0,0,0,.21-.1l17.77-10.33h0l.06,0,.07-.05h0l.06-.07v0h0l0,0a.14.14,0,0,0,0-.06h0v0s0,0,0,0a.13.13,0,0,0,0-.06h0v-.87Z"/><path class="cls-25" d="M132.06,132.64h.63l.11,0h.08l.21-.09,17.77-10.33h0l.06,0L151,122h0l.06-.07v0l0,0s0,0,0,0a.14.14,0,0,0,0-.06h0a.08.08,0,0,0,0,0,.13.13,0,0,0,0-.06h0v-.18a.36.36,0,0,1,0,.1h0a.31.31,0,0,1,0,.1v0l-.09.09a.24.24,0,0,1-.08.06l-.06,0-17.78,10.33a.67.67,0,0,1-.21.09l-.08,0-.11,0-.13,0h-.45l-.18,0h0l-.15,0h0l-.17-.08L95.83,111.66a.54.54,0,0,1-.32-.45v.2a.56.56,0,0,0,.32.44l35.73,20.63.15.07h0l.09,0H132Z"/><path class="cls-26" d="M150.86,121.07l-35.73-20.63a1.72,1.72,0,0,0-1.53,0L95.83,110.77a.47.47,0,0,0,0,.89l35.73,20.63a1.72,1.72,0,0,0,1.53,0L150.87,122C151.29,121.71,151.29,121.32,150.86,121.07Z"/><path class="cls-27" d="M145.46,119.71l-28-16.14a7.07,7.07,0,0,1-6.37,0l-9.91,5.76c1.77,1,1.77,2.67,0,3.69l28,16.15a7,7,0,0,1,6.37,0l9.92-5.77C143.72,122.39,143.71,120.73,145.46,119.71Z"/><path class="cls-28" d="M129.13,113a12.84,12.84,0,0,0-11.61,0c-3.19,1.86-3.17,4.87,0,6.73a12.81,12.81,0,0,0,11.61,0C132.37,117.87,132.35,114.86,129.13,113Z"/><path class="cls-24" d="M151.18,120.16a.22.22,0,0,1,0,.11h0a.31.31,0,0,1,0,.1v0l-.09.1-.08,0-.06,0-17.78,10.33a.67.67,0,0,1-.21.09l-.08,0-.11,0-.13,0h-.45l-.18,0h0l-.15-.05h0l-.17-.08L95.83,110.3a.54.54,0,0,1-.32-.45v.89a.54.54,0,0,0,.32.45l35.73,20.62.15.08h0l.09,0H132l.1,0h.63l.11,0h.08a1.36,1.36,0,0,0,.21-.1l17.77-10.33h0l.06,0,.07-.05h0l.06-.07v0h0l0,0a.14.14,0,0,0,0-.06h0v0s0,0,0,0a.13.13,0,0,0,0-.06h0v-.87Z"/><path class="cls-25" d="M132.06,131.28h.49l.1,0h0l.11,0h.08l.21-.09,17.77-10.33h0l.06,0,.07-.06h0l.06-.07v0l0,0,0,0a.14.14,0,0,0,0-.06h0a.08.08,0,0,0,0,0,.13.13,0,0,0,0-.06h0v-.18a.36.36,0,0,1,0,.1h0a.31.31,0,0,1,0,.1v0l-.09.1-.08,0-.06,0-17.78,10.33a.67.67,0,0,1-.21.09l-.08,0-.11,0-.13,0h-.45l-.18,0h0l-.15-.05h0l-.17-.08L95.83,110.3a.54.54,0,0,1-.32-.45v.2a.56.56,0,0,0,.32.44l35.73,20.63.15.07h0l.09,0H132Z"/><path class="cls-29" d="M150.86,119.71,115.13,99.08a1.72,1.72,0,0,0-1.53,0L95.83,109.41a.47.47,0,0,0,0,.89l35.73,20.63a1.72,1.72,0,0,0,1.53,0l17.78-10.33C151.29,120.35,151.29,120,150.86,119.71Z"/><path class="cls-27" d="M145.46,118.35l-28-16.14a7,7,0,0,1-6.37,0L101.21,108c1.77,1,1.77,2.67,0,3.69l28,16.15a7,7,0,0,1,6.37,0l9.92-5.76C143.72,121,143.71,119.37,145.46,118.35Z"/><path class="cls-30" d="M129.13,111.64a12.84,12.84,0,0,0-11.61,0c-3.19,1.86-3.17,4.87,0,6.73a12.78,12.78,0,0,0,11.61,0C132.37,116.51,132.35,113.5,129.13,111.64Z"/><path class="cls-24" d="M151.18,118.8a.22.22,0,0,1,0,.11h0a.31.31,0,0,1,0,.1v0l-.09.1-.08,0-.06,0-17.78,10.33a.67.67,0,0,1-.21.09l-.08,0-.11,0-.13,0h-.45l-.18,0h0l-.15,0h0l-.17-.08L95.83,108.94a.54.54,0,0,1-.32-.44v.88a.54.54,0,0,0,.32.45l35.73,20.62.15.08h0l.09,0,.06,0H132l.1,0h.63l.11,0h.08a1.36,1.36,0,0,0,.21-.1l17.77-10.33h0l.06-.05.07,0h0l.06-.07h0l0,0,0,0a.14.14,0,0,0,0-.06h0v0a0,0,0,0,0,0,0,.2.2,0,0,0,0-.07h0v-.87Z"/><path class="cls-25" d="M132.06,129.92h.49l.1,0h0l.11,0h.08l.21-.09,17.77-10.33h0l.06,0,.07-.06h0l.06-.07v0l0,0,0,0a.14.14,0,0,0,0-.06h0a.06.06,0,0,0,0,0,.13.13,0,0,0,0-.06h0v-.18a.36.36,0,0,1,0,.1h0a.31.31,0,0,1,0,.1v0l-.09.1-.08,0-.06,0-17.78,10.33a.67.67,0,0,1-.21.09l-.08,0-.11,0-.13,0h-.45l-.18,0h0l-.15,0h0l-.17-.08L95.83,108.94a.54.54,0,0,1-.32-.44v.19a.56.56,0,0,0,.32.44l35.73,20.63.15.07h0l.09,0H132Z"/><path class="cls-31" d="M150.86,118.35,115.13,97.72a1.72,1.72,0,0,0-1.53,0L95.83,108.05a.47.47,0,0,0,0,.89l35.73,20.63a1.72,1.72,0,0,0,1.53,0l17.78-10.33C151.29,119,151.29,118.6,150.86,118.35Z"/><path class="cls-27" d="M145.46,117l-28-16.15a7,7,0,0,1-6.37,0l-9.91,5.76c1.77,1,1.77,2.67,0,3.69l28,16.15a7,7,0,0,1,6.37,0l9.92-5.76C143.72,119.67,143.71,118,145.46,117Z"/><path class="cls-32" d="M129.13,110.28a12.84,12.84,0,0,0-11.61,0c-3.19,1.86-3.17,4.87,0,6.73a12.78,12.78,0,0,0,11.61,0C132.37,115.15,132.35,112.14,129.13,110.28Z"/><path class="cls-24" d="M151.18,117.44a.22.22,0,0,1,0,.11h0a.31.31,0,0,1,0,.1v0l-.09.1-.08.06-.06,0-17.78,10.33a.67.67,0,0,1-.21.09l-.08,0-.11,0-.13,0h-.45l-.18,0h0l-.15,0h0l-.17-.08L95.83,107.58a.54.54,0,0,1-.32-.44V108a.54.54,0,0,0,.32.45l35.73,20.62.15.08h0l.09,0,.06,0H132l.1,0h.63l.11,0h.08a1.36,1.36,0,0,0,.21-.1l17.77-10.33h0l.06-.05.07,0h0l.06-.08h0l0,0,0,0a.14.14,0,0,0,0-.06h0v0a0,0,0,0,0,0,0,.2.2,0,0,0,0-.07h0v-.87Z"/><path class="cls-25" d="M132.06,128.56h.49l.1,0h0a.23.23,0,0,0,.11,0h.08l.21-.09,17.77-10.33h0l.06,0L151,118h0l.06-.07v0l0,0,0,0a.14.14,0,0,0,0-.06h0a.06.06,0,0,0,0,0,.13.13,0,0,0,0-.06h0v-.18a.36.36,0,0,1,0,.1h0a.31.31,0,0,1,0,.1v0l-.09.1-.08.06-.06,0-17.78,10.33a.67.67,0,0,1-.21.09l-.08,0-.11,0-.13,0h-.45l-.18,0h0l-.15,0h0l-.17-.08L95.83,107.58a.54.54,0,0,1-.32-.44v.2a.56.56,0,0,0,.32.43l35.73,20.63.15.07h0l.09,0H132Z"/><path class="cls-33" d="M150.86,117,115.13,96.36a1.72,1.72,0,0,0-1.53,0L95.83,106.69a.47.47,0,0,0,0,.89l35.73,20.63a1.68,1.68,0,0,0,1.53,0l17.78-10.33C151.29,117.64,151.29,117.24,150.86,117Z"/><path class="cls-27" d="M145.46,115.64l-28-16.15a7,7,0,0,1-6.37,0l-9.91,5.76c1.77,1,1.77,2.67,0,3.69l28,16.15a7,7,0,0,1,6.37,0l9.92-5.76C143.72,118.31,143.71,116.65,145.46,115.64Z"/><path class="cls-34" d="M129.13,108.92a12.81,12.81,0,0,0-11.61,0c-3.19,1.85-3.17,4.86,0,6.72a12.78,12.78,0,0,0,11.61,0C132.37,113.79,132.35,110.78,129.13,108.92Z"/><path class="cls-24" d="M151.18,116.08a.22.22,0,0,1,0,.11h0a.31.31,0,0,1,0,.1v0l-.09.1-.08.06-.06,0-17.78,10.33a.67.67,0,0,1-.21.09l-.08,0-.11,0-.13,0h-.45l-.18,0h0l-.15,0h0l-.17-.08L95.83,106.22a.54.54,0,0,1-.32-.44v.88a.54.54,0,0,0,.32.45l35.73,20.62.15.08h0l.09,0,.06,0H132l.1,0h.63l.11,0h.08a1.36,1.36,0,0,0,.21-.1l17.77-10.33h0l.06-.05.07,0h0l.06-.08h0l0,0,0,0a.14.14,0,0,0,0-.06h0v0a0,0,0,0,0,0,0,.17.17,0,0,0,0-.07h0v-.87Z"/><path class="cls-25" d="M132.06,127.2h.49l.1,0h0l.11,0,0,0h0a.78.78,0,0,0,.21-.09l17.77-10.33h0l.06,0,.07,0h0l.06-.07v0l0,0,0,0a.14.14,0,0,0,0-.06h0a.06.06,0,0,0,0,0,.13.13,0,0,0,0-.06h0v-.18a.3.3,0,0,1,0,.1h0a.31.31,0,0,1,0,.1v0l-.09.1-.08.06-.06,0-17.78,10.33a.67.67,0,0,1-.21.09l-.08,0-.11,0-.13,0h-.45l-.18,0h0l-.15,0h0l-.17-.08L95.83,106.22a.54.54,0,0,1-.32-.44v.2a.56.56,0,0,0,.32.43L131.56,127l.15.07h0l.09,0h.22Z"/><path class="cls-35" d="M150.86,115.63,115.13,95a1.65,1.65,0,0,0-1.53,0L95.83,105.33a.47.47,0,0,0,0,.89l35.73,20.63a1.68,1.68,0,0,0,1.53,0l17.78-10.33C151.29,116.28,151.29,115.88,150.86,115.63Z"/><path class="cls-27" d="M145.46,114.28l-28-16.15a7,7,0,0,1-6.37,0l-9.91,5.76c1.77,1,1.77,2.67,0,3.69l28,16.15a7,7,0,0,1,6.37,0l9.92-5.76C143.72,117,143.71,115.29,145.46,114.28Z"/><path class="cls-36" d="M129.13,107.57a12.78,12.78,0,0,0-11.61,0c-3.19,1.85-3.17,4.86,0,6.72a12.78,12.78,0,0,0,11.61,0C132.37,112.43,132.35,109.42,129.13,107.57Z"/><polygon class="cls-37" points="119.67 97.21 99.78 108.69 106.94 112.85 126.85 101.36 119.67 97.21"/><polygon class="cls-38" points="106.94 112.85 106.94 119.21 99.78 115.05 99.78 108.69 106.94 112.85"/><polygon class="cls-39" points="99.78 108.91 106.94 113.07 106.94 112.85 99.78 108.69 99.78 108.91"/><path class="cls-40" d="M107.18,141.5s-4-.58-4.91-.78a1.87,1.87,0,0,0-2.4,1.18c-.27,1.16.57,2,3,3.4s2.7,1.38,3.49,1.8a3.2,3.2,0,0,0,2.63.38,2.29,2.29,0,0,0,1.56-1.78,23.73,23.73,0,0,0-.17-3.24Z"/><path class="cls-11" d="M108.06,99.81s1,2.16.53,8.42c-.27,3.78.9,12.34,1.17,15s.23,4.45.52,8.66c.42,6.39.55,12.24.55,12.24a4.62,4.62,0,0,1-4,.59,2.54,2.54,0,0,1-2.08-2.86s-2.61-15.57-3.32-20.12-3-14.5-2.27-20.47Z"/><path class="cls-11" d="M97.32,145.91s-4-.57-4.91-.77a1.86,1.86,0,0,0-2.4,1.17c-.27,1.16.56,2,3,3.41s2.7,1.37,3.5,1.79a3.1,3.1,0,0,0,2.62.38,2.28,2.28,0,0,0,1.56-1.78,24.14,24.14,0,0,0-.16-3.24Z"/><path class="cls-41" d="M104.32,104.57a60.73,60.73,0,0,0-2.59,7.14c-1,3.64-1.07,13.31-.8,15.94s.86,2.4.66,8.8-.33,12.07-.33,12.07a4.66,4.66,0,0,1-4.05.59,2.56,2.56,0,0,1-2.08-2.87s-.92-15.41-1.63-20-3-14.5-2.27-20.47Z"/><path class="cls-42" d="M81.38,82.65s-.53-1.17-.73-1.8a6.41,6.41,0,0,1-.46-1.77c0-.35.11-.53.25-.53s.38.53.57,1,.39.74.48,1.08.45,1.08.45,1.08Z"/><path class="cls-43" d="M81.83,81.79s-.4-1.21-.55-1.87a6.73,6.73,0,0,1-.27-1.8c.07-.35.16-.52.3-.51s.33.57.47,1.07.31.78.37,1.13.39,1.29.39,1.29Z"/><path class="cls-44" d="M82.4,81.26s-.15-1.1-.18-1.68a5.59,5.59,0,0,1,0-1.59c.11-.28.21-.41.33-.38s.2.53.24,1,.15.71.14,1,.14,1.17.14,1.17Z"/><path class="cls-45" d="M83.09,81.17s-.07-1,0-1.46a5,5,0,0,1,.13-1.37c.11-.24.21-.35.32-.31s.13.47.14.87.08.62.06.88,0,1,0,1Z"/><path class="cls-46" d="M84.83,84.36s-.51,0-1.16,0a3.81,3.81,0,0,0-1.42.33,1.7,1.7,0,0,0-.84.58c-.16.22-.62,0-.4-.65.14-.4.16-.39.54-.76.2-.2,0-.62-.13-1a3.37,3.37,0,0,1-.25-.93c0-.43,2.23-2,2.41-1.72a4.41,4.41,0,0,1,.68,1.3c.14.35,1.18.52,1.18.52Z"/><path class="cls-47" d="M83.46,84.4s0-2.43.8-3l1.2.19a1.06,1.06,0,0,1,1-.27c.65.09,5.82,1,5.82,1l.43,4.93S86.81,86.1,86,85.83A2.28,2.28,0,0,1,84.88,85Z"/><path class="cls-48" d="M92.67,74.19a4.21,4.21,0,0,0-2.29,4.06c.05,3.09,1.38,10.52,1.66,14.44s-1.24,9.37-1.31,10.39.14,1,.14,1a17.71,17.71,0,0,0-.21,2.07c4.43,2,9.76,1.09,13.66-.84s4.46-3.9,4.46-3.9l-.15-2a1.44,1.44,0,0,0,.25-1c-.09-.51-1.41-7.56-1.54-9.54s2-13.49,1.09-16.93a4.16,4.16,0,0,0-4.36-3.42C103.36,68.58,92.67,74.19,92.67,74.19Z"/><path class="cls-49" d="M94.48,59.25a14.55,14.55,0,0,0-.6,3.21c.08.81-.19,2.3-.2,3.17s.16,3.8.9,4.08a6.7,6.7,0,0,0,2.12.17L96.47,73a7.72,7.72,0,0,0,4.5-.36,3.72,3.72,0,0,0,2.09-2.2,18.64,18.64,0,0,1-.53-3.19c-.12-1.73-.37-8.58-.37-8.58Z"/><path class="cls-50" d="M95.63,60a10.34,10.34,0,0,0-.52,2.92c.12.83.84,1,.72,2.15s-.14,1.59-.14,1.59.82,0,1-.49.21-1,1-.67.82,1.82.67,2.78a3.36,3.36,0,0,0,3,1.11A6.67,6.67,0,0,0,104,66.6c1-1.93,1.76-4.43,1.2-6A3.61,3.61,0,0,0,103.81,57c-1.3-.76-2.5-1.49-2.68-1.94a1.27,1.27,0,0,0-.15,1,9.77,9.77,0,0,0-4.2-.47,3.66,3.66,0,0,1-2,0s-.36.89.2,1.17c0,0-1.21.6-1.4,1.55a1.21,1.21,0,0,0,.54-.18s-.39,2.11.7,2.8A2.71,2.71,0,0,1,95.63,60Z"/><path class="cls-15" d="M94.48,73a4.65,4.65,0,0,1,3.25-1c1.92.06,4.62-.8,5.14-2.41l-.15-.79s1.2-.58,1.82,0,3,3.89,2.47,7.21c-.62,3.92-1.94,3.89-3.05,4.15s-3.77-.36-6.23-2.77S94,74,92.86,74.08C92.86,74.08,93.7,73.43,94.48,73Z"/><path class="cls-51" d="M92.67,74.19a3,3,0,0,1,1.61-1.11c1-.18,5.11,1.46,7.09,2.57s4.1.32,4-1.83-1.44-4.66-2.5-5.08a1.55,1.55,0,0,1,1.7-.09c1,.51,2.77,3.46,2.79,6.63s-1,5-2.92,5.27-4.59-.7-6.62-2.63S95.1,74.59,92.67,74.19Z"/><path class="cls-52" d="M87.36,101.5a28.27,28.27,0,0,0-1,3.32,24.46,24.46,0,0,0,.28,3.24c.06.26.65.58,1,.85s2.09.56,2.42.76.52.07.37-.37-.56-.76-.66-1.06a5.54,5.54,0,0,1,0-2.07,8.58,8.58,0,0,0,.62-2.26,7.63,7.63,0,0,0-.45-2.06Z"/><path class="cls-53" d="M91.84,74.74c-1.17.4-2.76,2.28-2.09,9.34s.55,6.22.35,7.93A26,26,0,0,1,87.55,99c-.45.4.18,1.3.18,1.3L87,101.79s.37,2.38,3.64,1.89l.74-1.71s1.42-.4,1.5-1.51,2.67-5.16,3-8.58,1.28-5.9,1-9.79C96.62,77.92,94.25,73.94,91.84,74.74Z"/></g></g></g></svg>