<svg xmlns="http://www.w3.org/2000/svg" viewBox="0 0 15.69 17.05"><defs><style>.cls-1{fill:#fff;}</style></defs><title>gasolinera</title><g id="Capa_2" data-name="Capa 2"><g id="Capa_1-2" data-name="Capa 1"><g id="Grupo_68" data-name="Grupo 68"><path id="Trazado_1125" data-name="Trazado 1125" class="cls-1" d="M15,4V4L11.47.47l-1,1,2,2a2.36,2.36,0,0,0,.85,4.57,2.42,2.42,0,0,0,.95-.2v6.83a1,1,0,1,1-1.9,0V10.42a1.91,1.91,0,0,0-1.9-1.9h-1V1.89A1.9,1.9,0,0,0,7.61,0H1.9A1.9,1.9,0,0,0,0,1.89H0V17.05H9.51V9.94h1.43v4.74a2.38,2.38,0,0,0,4.75,0v-9A2.38,2.38,0,0,0,15,4ZM7.61,6.63H1.9V1.89H7.61Zm5.71,0a.95.95,0,1,1,.95-1h0a1,1,0,0,1-1,1Z"/></g></g></g></svg>