<svg xmlns="http://www.w3.org/2000/svg" viewBox="0 0 366.47 374.05"><defs><style>.cls-1{fill:#3284ff;}.cls-2{fill:#ff3424;}.cls-3{fill:#fb0;}.cls-4{fill:#26b14c;}</style></defs><title>google_svg</title><g id="Capa_2" data-name="Capa 2"><g id="Layer_1" data-name="Layer 1"><path class="cls-1" d="M366.47,187a199.82,199.82,0,0,0-3.18-35.38H187v70.77H293.7a112.57,112.57,0,0,1-40.94,59.9l55,43.8C344.09,291.88,366.47,242.26,366.47,187Z"/><path class="cls-2" d="M189.32,75.82A105.78,105.78,0,0,1,259,101.7L310,50A174.69,174.69,0,0,0,187,0C115.22,0,51.2,42.17,20,103.56l62.54,47.68C98.57,107.28,141.06,75.82,189.32,75.82Z"/><path class="cls-3" d="M21.21,272.75l60.3-48a111.92,111.92,0,0,1,1.07-73.54L20,103.56a183.84,183.84,0,0,0,1.17,169.19Z"/><path class="cls-4" d="M81.51,224.78l-60.3,48c31.58,60.16,94.9,101.3,165.81,101.3A174.61,174.61,0,0,0,307.8,326.11l-55-43.8a105.59,105.59,0,0,1-63.44,21C139.93,303.28,96.6,270.35,81.51,224.78Z"/></g></g></svg>