<svg xmlns="http://www.w3.org/2000/svg" xmlns:xlink="http://www.w3.org/1999/xlink" viewBox="0 0 244.84 425.31"><defs><style>.cls-1{fill:url(#Degradado_sin_nombre_8);}.cls-2{fill:#fff;}</style><linearGradient id="Degradado_sin_nombre_8" y1="330.4" x2="158.65" y2="330.4" gradientUnits="userSpaceOnUse"><stop offset="0" stop-color="#29abe2"/><stop offset="1" stop-color="#2e3192"/></linearGradient></defs><title>isotipo</title><g id="Capa_2" data-name="Capa 2"><g id="Capa_1-2" data-name="Capa 1"><path class="cls-1" d="M122.72,425.31S5.51,348.15,0,267.66l96.84-32.18s-48,84,61.81,106Z"/><path class="cls-2" d="M122.72,425.31S71.29,367.54,135.4,304.83c0,0,66.93-54.25,51.43-122.59,0,0-9.15-36.64-21.84-43.68,0,0,71.16,34.52,79.62,114.13C244.61,252.69,255.88,345.7,122.72,425.31Z"/><path class="cls-2" d="M110.74,416.86s-98.32-66.38-24-162.62c0,0,66-83.79,66-146,0,0-2.36-81.8-25-108.25,0,0,12.15,98-75.06,173.58C52.68,173.58-98.16,289.52,110.74,416.86Z"/></g></g></svg>