<svg xmlns="http://www.w3.org/2000/svg" xmlns:xlink="http://www.w3.org/1999/xlink" viewBox="0 0 637.49 546.44"><defs><style>.cls-1{fill:#fff;}.cls-2{fill:url(#Degradado_sin_nombre_8);}</style><linearGradient id="Degradado_sin_nombre_8" x1="203.09" y1="330.4" x2="361.74" y2="330.4" gradientUnits="userSpaceOnUse"><stop offset="0" stop-color="#29abe2"/><stop offset="1" stop-color="#2e3192"/></linearGradient></defs><title>logo</title><g id="Capa_2" data-name="Capa 2"><g id="Capa_1-2" data-name="Capa 1"><path class="cls-1" d="M0,545.76v-60.1H25.65a17.53,17.53,0,0,1,7.91,1.78,20.31,20.31,0,0,1,6.18,4.66,22.26,22.26,0,0,1,4.07,6.51A19.58,19.58,0,0,1,45.29,506a21.14,21.14,0,0,1-1.4,7.62A21.75,21.75,0,0,1,40,520.11a18.47,18.47,0,0,1-6.06,4.58,18.18,18.18,0,0,1-7.87,1.69H13.88v19.38Zm13.88-31.49H25.23a5.38,5.38,0,0,0,4.23-2.11A9.41,9.41,0,0,0,31.24,506a10.63,10.63,0,0,0-.56-3.64,7.34,7.34,0,0,0-1.48-2.54,5.6,5.6,0,0,0-2.11-1.48,6.45,6.45,0,0,0-2.37-.47H13.88Z"/><path class="cls-1" d="M111.9,533.57v12.19H69.67v-60.1h41.47v12.19H83.55v11.68h23.7v11.26H83.55v12.78Z"/><path class="cls-1" d="M137.3,545.76v-60.1h27.09a17.38,17.38,0,0,1,7.83,1.78,21,21,0,0,1,6.22,4.66,21.54,21.54,0,0,1,4.1,6.51A19.39,19.39,0,0,1,184,506a21.13,21.13,0,0,1-.67,5.37,20.5,20.5,0,0,1-1.95,4.87,18.92,18.92,0,0,1-3.09,4.11,18.62,18.62,0,0,1-4.1,3.09l13.2,22.34H171.75l-11.51-19.38h-9.06v19.38Zm13.88-31.49h12.7a5.21,5.21,0,0,0,4.23-2.32,9.54,9.54,0,0,0,1.78-6,8.43,8.43,0,0,0-2-5.93,6,6,0,0,0-4.4-2.2H151.18Z"/><path class="cls-1" d="M258.35,545.76v-36l-13,26.15h-7.45l-13-26.15v36H210.94v-60.1H226l15.57,31.41,15.67-31.41h15v60.1Z"/><path class="cls-1" d="M342.91,533.57v12.19H300.67v-60.1h41.48v12.19h-27.6v11.68h23.7v11.26h-23.7v12.78Z"/><path class="cls-1" d="M368.3,545.76v-60.1h27.09a17.38,17.38,0,0,1,7.83,1.78,20.85,20.85,0,0,1,6.22,4.66,21.77,21.77,0,0,1,4.11,6.51A19.58,19.58,0,0,1,415,506a21.13,21.13,0,0,1-.68,5.37,20.9,20.9,0,0,1-1.94,4.87,18.33,18.33,0,0,1-7.2,7.2l13.21,22.34H402.75l-11.51-19.38h-9.05v19.38Zm13.89-31.49h12.69a5.22,5.22,0,0,0,4.24-2.32,9.6,9.6,0,0,0,1.77-6,8.39,8.39,0,0,0-2-5.93,6,6,0,0,0-4.4-2.2H382.19Z"/><path class="cls-1" d="M483.25,539.84a22.6,22.6,0,0,1-15.82,6.35,28.16,28.16,0,0,1-20.36-8.55,29.6,29.6,0,0,1-6.22-9.78,33.43,33.43,0,0,1-2.29-12.57,30,30,0,0,1,2.29-11.68,29.51,29.51,0,0,1,6.3-9.57,30,30,0,0,1,21.38-8.8,29.48,29.48,0,0,1,14.64,3.51,22.84,22.84,0,0,1,9.4,9.61l-10.33,7.79a14.82,14.82,0,0,0-5.88-6.31A16.35,16.35,0,0,0,468,497.6a14.08,14.08,0,0,0-6.31,1.39,14.57,14.57,0,0,0-4.87,3.9,18.39,18.39,0,0,0-3.13,5.8,22.44,22.44,0,0,0-1.1,7.11A21.14,21.14,0,0,0,453.8,523a17.62,17.62,0,0,0,3.3,5.72,15,15,0,0,0,11.51,5.12q8.13,0,14.64-7.54v-1.86H471.57V514.36h23.2v31.4H483.25Z"/><path class="cls-1" d="M537.18,485.66H549.7l21.93,60.1H557.41l-4.66-13.46H534l-4.57,13.46H515.25Zm13.29,37.08-7-21.25-7.19,21.25Z"/><path class="cls-1" d="M629.61,503.27a8.29,8.29,0,0,0-1.77-1.27,34.81,34.81,0,0,0-3.81-1.95,38.39,38.39,0,0,0-5-1.78,20.2,20.2,0,0,0-5.42-.76q-7.44,0-7.44,5a4,4,0,0,0,.8,2.54,7.33,7.33,0,0,0,2.37,1.82,22.19,22.19,0,0,0,3.94,1.48q2.37.67,5.5,1.52a72.57,72.57,0,0,1,7.79,2.58,21,21,0,0,1,5.88,3.47,14.09,14.09,0,0,1,3.72,5,17.42,17.42,0,0,1,1.32,7.11,17.79,17.79,0,0,1-1.91,8.59,16.05,16.05,0,0,1-5,5.67,21.33,21.33,0,0,1-7.2,3.14,36.32,36.32,0,0,1-8.38,1,46.5,46.5,0,0,1-6.77-.51,48.79,48.79,0,0,1-6.77-1.48,53,53,0,0,1-6.4-2.33,35.11,35.11,0,0,1-5.71-3.13l6.1-12.1a11.11,11.11,0,0,0,2.2,1.6,31,31,0,0,0,4.61,2.37,45.28,45.28,0,0,0,6.14,2.12,25.71,25.71,0,0,0,6.85.93q7.37,0,7.37-4.48a3.82,3.82,0,0,0-1.1-2.8,10.66,10.66,0,0,0-3-2,34.1,34.1,0,0,0-4.61-1.65q-2.67-.76-5.8-1.69a50,50,0,0,1-7.2-2.75,18.91,18.91,0,0,1-5-3.43,12.41,12.41,0,0,1-3-4.49,16.44,16.44,0,0,1-1-5.92,18.78,18.78,0,0,1,1.78-8.38,18.06,18.06,0,0,1,4.82-6.14,21.25,21.25,0,0,1,7.07-3.77,28.31,28.31,0,0,1,8.51-1.27,31.89,31.89,0,0,1,6.18.6,45.78,45.78,0,0,1,5.84,1.52,41.15,41.15,0,0,1,5.2,2.12q2.41,1.19,4.45,2.37Z"/><path class="cls-2" d="M325.81,425.31S208.6,348.15,203.09,267.66l96.85-32.18s-48,84,61.8,106Z"/><path class="cls-1" d="M325.81,425.31s-51.43-57.77,12.68-120.48c0,0,66.94-54.25,51.44-122.59,0,0-9.16-36.64-21.84-43.68,0,0,71.16,34.52,79.61,114.13C447.7,252.69,459,345.7,325.81,425.31Z"/><path class="cls-1" d="M313.83,416.86s-98.32-66.38-24-162.62c0,0,66-83.79,66-146,0,0-2.36-81.8-25-108.25,0,0,12.15,98-75,173.58C255.78,173.58,104.93,289.52,313.83,416.86Z"/></g></g></svg>