<?xml version="1.0" encoding="utf-8"?>
<!-- Generator: Adobe Illustrator 23.0.3, SVG Export Plug-In . SVG Version: 6.00 Build 0)  -->
<svg version="1.1" id="Capa_1" xmlns="http://www.w3.org/2000/svg" xmlns:xlink="http://www.w3.org/1999/xlink" x="0px" y="0px"
	 viewBox="0 0 98.1 19.3" style="enable-background:new 0 0 98.1 19.3;" xml:space="preserve">
<style type="text/css">
	.st0{enable-background:new    ;}
	.st1{fill:#FFFFFF;}
	.st2{clip-path:url(#SVGID_2_);fill:#29ABE2;}
	.st3{clip-path:url(#SVGID_2_);fill:#29AAE1;}
	.st4{clip-path:url(#SVGID_2_);fill:#29A9E1;}
	.st5{clip-path:url(#SVGID_2_);fill:#29A8E0;}
	.st6{clip-path:url(#SVGID_2_);fill:#29A7DF;}
	.st7{clip-path:url(#SVGID_2_);fill:#29A6DF;}
	.st8{clip-path:url(#SVGID_2_);fill:#29A5DE;}
	.st9{clip-path:url(#SVGID_2_);fill:#29A4DD;}
	.st10{clip-path:url(#SVGID_2_);fill:#29A3DD;}
	.st11{clip-path:url(#SVGID_2_);fill:#29A2DC;}
	.st12{clip-path:url(#SVGID_2_);fill:#29A1DB;}
	.st13{clip-path:url(#SVGID_2_);fill:#29A0DB;}
	.st14{clip-path:url(#SVGID_2_);fill:#299FDA;}
	.st15{clip-path:url(#SVGID_2_);fill:#2A9ED9;}
	.st16{clip-path:url(#SVGID_2_);fill:#2A9DD9;}
	.st17{clip-path:url(#SVGID_2_);fill:#2A9CD8;}
	.st18{clip-path:url(#SVGID_2_);fill:#2A9BD7;}
	.st19{clip-path:url(#SVGID_2_);fill:#2A9AD7;}
	.st20{clip-path:url(#SVGID_2_);fill:#2A99D6;}
	.st21{clip-path:url(#SVGID_2_);fill:#2A98D5;}
	.st22{clip-path:url(#SVGID_2_);fill:#2A97D5;}
	.st23{clip-path:url(#SVGID_2_);fill:#2A96D4;}
	.st24{clip-path:url(#SVGID_2_);fill:#2A95D3;}
	.st25{clip-path:url(#SVGID_2_);fill:#2A94D3;}
	.st26{clip-path:url(#SVGID_2_);fill:#2A93D2;}
	.st27{clip-path:url(#SVGID_2_);fill:#2A92D1;}
	.st28{clip-path:url(#SVGID_2_);fill:#2A91D1;}
	.st29{clip-path:url(#SVGID_2_);fill:#2A90D0;}
	.st30{clip-path:url(#SVGID_2_);fill:#2A8FCF;}
	.st31{clip-path:url(#SVGID_2_);fill:#2A8ECF;}
	.st32{clip-path:url(#SVGID_2_);fill:#2A8DCE;}
	.st33{clip-path:url(#SVGID_2_);fill:#2A8CCE;}
	.st34{clip-path:url(#SVGID_2_);fill:#2A8BCD;}
	.st35{clip-path:url(#SVGID_2_);fill:#2A8ACC;}
	.st36{clip-path:url(#SVGID_2_);fill:#2A89CC;}
	.st37{clip-path:url(#SVGID_2_);fill:#2A88CB;}
	.st38{clip-path:url(#SVGID_2_);fill:#2A87CA;}
	.st39{clip-path:url(#SVGID_2_);fill:#2B86CA;}
	.st40{clip-path:url(#SVGID_2_);fill:#2B85C9;}
	.st41{clip-path:url(#SVGID_2_);fill:#2B84C8;}
	.st42{clip-path:url(#SVGID_2_);fill:#2B83C8;}
	.st43{clip-path:url(#SVGID_2_);fill:#2B82C7;}
	.st44{clip-path:url(#SVGID_2_);fill:#2B81C6;}
	.st45{clip-path:url(#SVGID_2_);fill:#2B80C6;}
	.st46{clip-path:url(#SVGID_2_);fill:#2B7FC5;}
	.st47{clip-path:url(#SVGID_2_);fill:#2B7EC4;}
	.st48{clip-path:url(#SVGID_2_);fill:#2B7DC4;}
	.st49{clip-path:url(#SVGID_2_);fill:#2B7CC3;}
	.st50{clip-path:url(#SVGID_2_);fill:#2B7BC2;}
	.st51{clip-path:url(#SVGID_2_);fill:#2B7AC2;}
	.st52{clip-path:url(#SVGID_2_);fill:#2B79C1;}
	.st53{clip-path:url(#SVGID_2_);fill:#2B78C0;}
	.st54{clip-path:url(#SVGID_2_);fill:#2B77C0;}
	.st55{clip-path:url(#SVGID_2_);fill:#2B76BF;}
	.st56{clip-path:url(#SVGID_2_);fill:#2B75BE;}
	.st57{clip-path:url(#SVGID_2_);fill:#2B74BE;}
	.st58{clip-path:url(#SVGID_2_);fill:#2B73BD;}
	.st59{clip-path:url(#SVGID_2_);fill:#2B72BC;}
	.st60{clip-path:url(#SVGID_2_);fill:#2B71BC;}
	.st61{clip-path:url(#SVGID_2_);fill:#2B70BB;}
	.st62{clip-path:url(#SVGID_2_);fill:#2B6FBA;}
	.st63{clip-path:url(#SVGID_2_);fill:#2C6DBA;}
	.st64{clip-path:url(#SVGID_2_);fill:#2C6CB9;}
	.st65{clip-path:url(#SVGID_2_);fill:#2C6BB8;}
	.st66{clip-path:url(#SVGID_2_);fill:#2C6AB8;}
	.st67{clip-path:url(#SVGID_2_);fill:#2C69B7;}
	.st68{clip-path:url(#SVGID_2_);fill:#2C68B6;}
	.st69{clip-path:url(#SVGID_2_);fill:#2C67B6;}
	.st70{clip-path:url(#SVGID_2_);fill:#2C66B5;}
	.st71{clip-path:url(#SVGID_2_);fill:#2C65B4;}
	.st72{clip-path:url(#SVGID_2_);fill:#2C64B4;}
	.st73{clip-path:url(#SVGID_2_);fill:#2C63B3;}
	.st74{clip-path:url(#SVGID_2_);fill:#2C62B2;}
	.st75{clip-path:url(#SVGID_2_);fill:#2C61B2;}
	.st76{clip-path:url(#SVGID_2_);fill:#2C60B1;}
	.st77{clip-path:url(#SVGID_2_);fill:#2C5FB0;}
	.st78{clip-path:url(#SVGID_2_);fill:#2C5EB0;}
	.st79{clip-path:url(#SVGID_2_);fill:#2C5DAF;}
	.st80{clip-path:url(#SVGID_2_);fill:#2C5CAE;}
	.st81{clip-path:url(#SVGID_2_);fill:#2C5BAE;}
	.st82{clip-path:url(#SVGID_2_);fill:#2C5AAD;}
	.st83{clip-path:url(#SVGID_2_);fill:#2C59AC;}
	.st84{clip-path:url(#SVGID_2_);fill:#2C58AC;}
	.st85{clip-path:url(#SVGID_2_);fill:#2C57AB;}
	.st86{clip-path:url(#SVGID_2_);fill:#2C56AA;}
	.st87{clip-path:url(#SVGID_2_);fill:#2D55AA;}
	.st88{clip-path:url(#SVGID_2_);fill:#2D54A9;}
	.st89{clip-path:url(#SVGID_2_);fill:#2D53A8;}
	.st90{clip-path:url(#SVGID_2_);fill:#2D52A8;}
	.st91{clip-path:url(#SVGID_2_);fill:#2D51A7;}
	.st92{clip-path:url(#SVGID_2_);fill:#2D50A6;}
	.st93{clip-path:url(#SVGID_2_);fill:#2D4FA6;}
	.st94{clip-path:url(#SVGID_2_);fill:#2D4EA5;}
	.st95{clip-path:url(#SVGID_2_);fill:#2D4DA5;}
	.st96{clip-path:url(#SVGID_2_);fill:#2D4CA4;}
	.st97{clip-path:url(#SVGID_2_);fill:#2D4BA3;}
	.st98{clip-path:url(#SVGID_2_);fill:#2D4AA3;}
	.st99{clip-path:url(#SVGID_2_);fill:#2D49A2;}
	.st100{clip-path:url(#SVGID_2_);fill:#2D48A1;}
	.st101{clip-path:url(#SVGID_2_);fill:#2D47A1;}
	.st102{clip-path:url(#SVGID_2_);fill:#2D46A0;}
	.st103{clip-path:url(#SVGID_2_);fill:#2D459F;}
	.st104{clip-path:url(#SVGID_2_);fill:#2D449F;}
	.st105{clip-path:url(#SVGID_2_);fill:#2D439E;}
	.st106{clip-path:url(#SVGID_2_);fill:#2D429D;}
	.st107{clip-path:url(#SVGID_2_);fill:#2D419D;}
	.st108{clip-path:url(#SVGID_2_);fill:#2D409C;}
	.st109{clip-path:url(#SVGID_2_);fill:#2D3F9B;}
	.st110{clip-path:url(#SVGID_2_);fill:#2D3E9B;}
	.st111{clip-path:url(#SVGID_2_);fill:#2E3D9A;}
	.st112{clip-path:url(#SVGID_2_);fill:#2E3C99;}
	.st113{clip-path:url(#SVGID_2_);fill:#2E3B99;}
	.st114{clip-path:url(#SVGID_2_);fill:#2E3A98;}
	.st115{clip-path:url(#SVGID_2_);fill:#2E3997;}
	.st116{clip-path:url(#SVGID_2_);fill:#2E3897;}
	.st117{clip-path:url(#SVGID_2_);fill:#2E3796;}
	.st118{clip-path:url(#SVGID_2_);fill:#2E3695;}
	.st119{clip-path:url(#SVGID_2_);fill:#2E3595;}
	.st120{clip-path:url(#SVGID_2_);fill:#2E3494;}
	.st121{clip-path:url(#SVGID_2_);fill:#2E3393;}
	.st122{clip-path:url(#SVGID_2_);fill:#2E3293;}
	.st123{clip-path:url(#SVGID_2_);fill:#2E3192;}
</style>
<title>Recurso 1</title>
<g>
	<g id="Capa_1-2">
		<g class="st0">
			<path class="st1" d="M21.8,13.7v-7h3c0.3,0,0.6,0.1,0.9,0.2c0.3,0.1,0.5,0.3,0.7,0.5c0.2,0.2,0.4,0.5,0.5,0.8
				c0.1,0.3,0.2,0.6,0.2,0.9c0,0.3-0.1,0.6-0.2,0.9c-0.1,0.3-0.3,0.5-0.5,0.8s-0.4,0.4-0.7,0.5c-0.3,0.1-0.6,0.2-0.9,0.2h-1.4v2.3
				H21.8z M23.4,10.1h1.3c0.2,0,0.4-0.1,0.5-0.2s0.2-0.4,0.2-0.7c0-0.2,0-0.3-0.1-0.4c0-0.1-0.1-0.2-0.2-0.3
				c-0.1-0.1-0.2-0.1-0.2-0.2s-0.2-0.1-0.3-0.1h-1.3V10.1z"/>
			<path class="st1" d="M34.8,12.3v1.4h-4.9v-7h4.8v1.4h-3.2v1.4h2.8v1.3h-2.8v1.5H34.8z"/>
			<path class="st1" d="M37.8,13.7v-7h3.1c0.3,0,0.6,0.1,0.9,0.2c0.3,0.1,0.5,0.3,0.7,0.5C42.7,7.7,42.9,8,43,8.3
				c0.1,0.3,0.2,0.6,0.2,0.9c0,0.2,0,0.4-0.1,0.6c-0.1,0.2-0.1,0.4-0.2,0.6c-0.1,0.2-0.2,0.3-0.4,0.5c-0.1,0.1-0.3,0.3-0.5,0.4
				l1.5,2.6h-1.8l-1.3-2.3h-1.1v2.3H37.8z M39.4,10.1h1.5c0.2,0,0.4-0.1,0.5-0.3c0.1-0.2,0.2-0.4,0.2-0.7c0-0.3-0.1-0.5-0.2-0.7
				c-0.2-0.2-0.3-0.3-0.5-0.3h-1.4V10.1z"/>
			<path class="st1" d="M51.8,13.7V9.6l-1.5,3h-0.9l-1.5-3v4.2h-1.6v-7h1.8l1.8,3.7l1.8-3.7h1.7v7H51.8z"/>
			<path class="st1" d="M61.7,12.3v1.4h-4.9v-7h4.8v1.4h-3.2v1.4h2.8v1.3h-2.8v1.5H61.7z"/>
			<path class="st1" d="M64.6,13.7v-7h3.1c0.3,0,0.6,0.1,0.9,0.2c0.3,0.1,0.5,0.3,0.7,0.5c0.2,0.2,0.4,0.5,0.5,0.8
				C70,8.5,70,8.8,70,9.1c0,0.2,0,0.4-0.1,0.6s-0.1,0.4-0.2,0.6c-0.1,0.2-0.2,0.3-0.4,0.5c-0.1,0.1-0.3,0.3-0.5,0.4l1.5,2.6h-1.8
				l-1.3-2.3h-1.1v2.3H64.6z M66.2,10.1h1.5c0.2,0,0.4-0.1,0.5-0.3c0.1-0.2,0.2-0.4,0.2-0.7c0-0.3-0.1-0.5-0.2-0.7s-0.3-0.3-0.5-0.3
				h-1.4V10.1z"/>
			<path class="st1" d="M78,13.1c-0.5,0.5-1.1,0.7-1.8,0.7c-0.5,0-0.9-0.1-1.3-0.3c-0.4-0.2-0.8-0.4-1.1-0.7
				c-0.3-0.3-0.5-0.7-0.7-1.1c-0.2-0.4-0.3-0.9-0.3-1.5c0-0.5,0.1-0.9,0.3-1.4c0.2-0.4,0.4-0.8,0.7-1.1c0.3-0.3,0.7-0.6,1.1-0.7
				c0.4-0.2,0.9-0.3,1.4-0.3c0.6,0,1.2,0.1,1.7,0.4c0.5,0.3,0.8,0.6,1.1,1.1l-1.2,0.9c-0.2-0.3-0.4-0.6-0.7-0.7
				c-0.3-0.2-0.6-0.3-1-0.3c-0.3,0-0.5,0.1-0.7,0.2s-0.4,0.3-0.6,0.5c-0.2,0.2-0.3,0.4-0.4,0.7s-0.1,0.5-0.1,0.8
				c0,0.3,0,0.6,0.1,0.8c0.1,0.3,0.2,0.5,0.4,0.7c0.2,0.2,0.4,0.3,0.6,0.4c0.2,0.1,0.5,0.2,0.8,0.2c0.6,0,1.2-0.3,1.7-0.9v-0.2h-1.4
				v-1.2h2.7v3.7H78V13.1z"/>
		</g>
		<g class="st0">
			<path class="st1" d="M84.2,6.8h1.5l2.5,7h-1.7L86,12.2h-2.2l-0.5,1.6h-1.7L84.2,6.8z M85.8,11.1L85,8.6l-0.8,2.5H85.8z"/>
		</g>
		<g class="st0">
			<path class="st1" d="M95,8.8c0,0-0.1-0.1-0.2-0.1s-0.3-0.1-0.4-0.2c-0.2-0.1-0.4-0.1-0.6-0.2c-0.2-0.1-0.4-0.1-0.6-0.1
				c-0.6,0-0.9,0.2-0.9,0.6c0,0.1,0,0.2,0.1,0.3c0.1,0.1,0.2,0.1,0.3,0.2s0.3,0.1,0.5,0.2c0.2,0.1,0.4,0.1,0.6,0.2
				c0.3,0.1,0.6,0.2,0.9,0.3c0.3,0.1,0.5,0.2,0.7,0.4c0.2,0.2,0.3,0.4,0.4,0.6s0.2,0.5,0.2,0.8c0,0.4-0.1,0.7-0.2,1
				s-0.3,0.5-0.6,0.7c-0.2,0.2-0.5,0.3-0.8,0.4c-0.3,0.1-0.6,0.1-1,0.1c-0.3,0-0.5,0-0.8-0.1s-0.5-0.1-0.8-0.2s-0.5-0.2-0.7-0.3
				c-0.2-0.1-0.5-0.2-0.7-0.4l0.7-1.4c0,0,0.1,0.1,0.3,0.2c0.1,0.1,0.3,0.2,0.5,0.3c0.2,0.1,0.5,0.2,0.7,0.2
				c0.3,0.1,0.5,0.1,0.8,0.1c0.6,0,0.9-0.2,0.9-0.5c0-0.1,0-0.2-0.1-0.3s-0.2-0.2-0.4-0.2c-0.2-0.1-0.3-0.1-0.5-0.2
				c-0.2-0.1-0.4-0.1-0.7-0.2c-0.3-0.1-0.6-0.2-0.8-0.3c-0.2-0.1-0.4-0.2-0.6-0.4c-0.2-0.2-0.3-0.3-0.3-0.5
				c-0.1-0.2-0.1-0.4-0.1-0.7c0-0.4,0.1-0.7,0.2-1c0.1-0.3,0.3-0.5,0.6-0.7c0.2-0.2,0.5-0.3,0.8-0.4c0.3-0.1,0.6-0.1,1-0.1
				c0.2,0,0.5,0,0.7,0.1s0.5,0.1,0.7,0.2C94.8,7,95,7.1,95.2,7.2c0.2,0.1,0.4,0.2,0.5,0.3L95,8.8z"/>
		</g>
		<g>
			<g>
				<defs>
					<path id="SVGID_1_" d="M5.6,19.3c0,0-5.3-3.5-5.6-7.2l4.4-1.5c0,0-2.2,3.8,2.8,4.8L5.6,19.3z"/>
				</defs>
				<clipPath id="SVGID_2_">
					<use xlink:href="#SVGID_1_"  style="overflow:visible;"/>
				</clipPath>
				<path class="st2" d="M0,10.7v8.6V10.7z"/>
				<rect y="10.7" class="st2" width="0.1" height="8.6"/>
				<rect x="0.1" y="10.7" class="st3" width="0.1" height="8.6"/>
				<rect x="0.1" y="10.7" class="st4" width="0.1" height="8.6"/>
				<rect x="0.2" y="10.7" class="st5" width="0.1" height="8.6"/>
				<rect x="0.2" y="10.7" class="st6" width="0.1" height="8.6"/>
				<rect x="0.3" y="10.7" class="st7" width="0.1" height="8.6"/>
				<rect x="0.4" y="10.7" class="st8" width="0.1" height="8.6"/>
				<rect x="0.4" y="10.7" class="st9" width="0.1" height="8.6"/>
				<rect x="0.5" y="10.7" class="st10" width="0.1" height="8.6"/>
				<rect x="0.5" y="10.7" class="st11" width="0.1" height="8.6"/>
				<rect x="0.6" y="10.7" class="st12" width="0.1" height="8.6"/>
				<rect x="0.7" y="10.7" class="st13" width="0.1" height="8.6"/>
				<rect x="0.7" y="10.7" class="st14" width="0.1" height="8.6"/>
				<rect x="0.8" y="10.7" class="st15" width="0.1" height="8.6"/>
				<rect x="0.8" y="10.7" class="st16" width="0.1" height="8.6"/>
				<rect x="0.9" y="10.7" class="st17" width="0.1" height="8.6"/>
				<rect x="0.9" y="10.7" class="st18" width="0.1" height="8.6"/>
				<rect x="1" y="10.7" class="st19" width="0.1" height="8.6"/>
				<rect x="1.1" y="10.7" class="st20" width="0.1" height="8.6"/>
				<rect x="1.1" y="10.7" class="st21" width="0.1" height="8.6"/>
				<rect x="1.2" y="10.7" class="st22" width="0.1" height="8.6"/>
				<rect x="1.2" y="10.7" class="st23" width="0.1" height="8.6"/>
				<rect x="1.3" y="10.7" class="st24" width="0.1" height="8.6"/>
				<rect x="1.4" y="10.7" class="st25" width="0.1" height="8.6"/>
				<rect x="1.4" y="10.7" class="st26" width="0.1" height="8.6"/>
				<rect x="1.5" y="10.7" class="st27" width="0.1" height="8.6"/>
				<rect x="1.5" y="10.7" class="st28" width="0.1" height="8.6"/>
				<rect x="1.6" y="10.7" class="st29" width="0.1" height="8.6"/>
				<rect x="1.7" y="10.7" class="st30" width="0.1" height="8.6"/>
				<rect x="1.7" y="10.7" class="st31" width="0.1" height="8.6"/>
				<rect x="1.8" y="10.7" class="st32" width="0.1" height="8.6"/>
				<rect x="1.8" y="10.7" class="st33" width="0.1" height="8.6"/>
				<rect x="1.9" y="10.7" class="st34" width="0.1" height="8.6"/>
				<rect x="2" y="10.7" class="st35" width="0.1" height="8.6"/>
				<rect x="2" y="10.7" class="st36" width="0.1" height="8.6"/>
				<rect x="2.1" y="10.7" class="st37" width="0.1" height="8.6"/>
				<rect x="2.1" y="10.7" class="st38" width="0.1" height="8.6"/>
				<rect x="2.2" y="10.7" class="st39" width="0.1" height="8.6"/>
				<rect x="2.2" y="10.7" class="st40" width="0.1" height="8.6"/>
				<rect x="2.3" y="10.7" class="st41" width="0.1" height="8.6"/>
				<rect x="2.4" y="10.7" class="st42" width="0.1" height="8.6"/>
				<rect x="2.4" y="10.7" class="st43" width="0.1" height="8.6"/>
				<rect x="2.5" y="10.7" class="st44" width="0.1" height="8.6"/>
				<rect x="2.5" y="10.7" class="st45" width="0.1" height="8.6"/>
				<rect x="2.6" y="10.7" class="st46" width="0.1" height="8.6"/>
				<rect x="2.7" y="10.7" class="st47" width="0.1" height="8.6"/>
				<rect x="2.7" y="10.7" class="st48" width="0.1" height="8.6"/>
				<rect x="2.8" y="10.7" class="st49" width="0.1" height="8.6"/>
				<rect x="2.8" y="10.7" class="st50" width="0.1" height="8.6"/>
				<rect x="2.9" y="10.7" class="st51" width="0.1" height="8.6"/>
				<rect x="3" y="10.7" class="st52" width="0.1" height="8.6"/>
				<rect x="3" y="10.7" class="st53" width="0.1" height="8.6"/>
				<rect x="3.1" y="10.7" class="st54" width="0.1" height="8.6"/>
				<rect x="3.1" y="10.7" class="st55" width="0.1" height="8.6"/>
				<rect x="3.2" y="10.7" class="st56" width="0.1" height="8.6"/>
				<rect x="3.3" y="10.7" class="st57" width="0.1" height="8.6"/>
				<rect x="3.3" y="10.7" class="st58" width="0.1" height="8.6"/>
				<rect x="3.4" y="10.7" class="st59" width="0.1" height="8.6"/>
				<rect x="3.4" y="10.7" class="st60" width="0.1" height="8.6"/>
				<rect x="3.5" y="10.7" class="st61" width="0.1" height="8.6"/>
				<rect x="3.5" y="10.7" class="st62" width="0.1" height="8.6"/>
				<rect x="3.6" y="10.7" class="st63" width="0.1" height="8.6"/>
				<rect x="3.7" y="10.7" class="st64" width="0.1" height="8.6"/>
				<rect x="3.7" y="10.7" class="st65" width="0.1" height="8.6"/>
				<rect x="3.8" y="10.7" class="st66" width="0.1" height="8.6"/>
				<rect x="3.8" y="10.7" class="st67" width="0.1" height="8.6"/>
				<rect x="3.9" y="10.7" class="st68" width="0.1" height="8.6"/>
				<rect x="4" y="10.7" class="st69" width="0.1" height="8.6"/>
				<rect x="4" y="10.7" class="st70" width="0.1" height="8.6"/>
				<rect x="4.1" y="10.7" class="st71" width="0.1" height="8.6"/>
				<rect x="4.1" y="10.7" class="st72" width="0.1" height="8.6"/>
				<rect x="4.2" y="10.7" class="st73" width="0.1" height="8.6"/>
				<rect x="4.3" y="10.7" class="st74" width="0.1" height="8.6"/>
				<rect x="4.3" y="10.7" class="st75" width="0.1" height="8.6"/>
				<rect x="4.4" y="10.7" class="st76" width="0.1" height="8.6"/>
				<rect x="4.4" y="10.7" class="st77" width="0.1" height="8.6"/>
				<rect x="4.5" y="10.7" class="st78" width="0.1" height="8.6"/>
				<rect x="4.6" y="10.7" class="st79" width="0.1" height="8.6"/>
				<rect x="4.6" y="10.7" class="st80" width="0.1" height="8.6"/>
				<rect x="4.7" y="10.7" class="st81" width="0.1" height="8.6"/>
				<rect x="4.7" y="10.7" class="st82" width="0.1" height="8.6"/>
				<rect x="4.8" y="10.7" class="st83" width="0.1" height="8.6"/>
				<rect x="4.8" y="10.7" class="st84" width="0.1" height="8.6"/>
				<rect x="4.9" y="10.7" class="st85" width="0.1" height="8.6"/>
				<rect x="5" y="10.7" class="st86" width="0.1" height="8.6"/>
				<rect x="5" y="10.7" class="st87" width="0.1" height="8.6"/>
				<rect x="5.1" y="10.7" class="st88" width="0.1" height="8.6"/>
				<rect x="5.1" y="10.7" class="st89" width="0.1" height="8.6"/>
				<rect x="5.2" y="10.7" class="st90" width="0.1" height="8.6"/>
				<rect x="5.3" y="10.7" class="st91" width="0.1" height="8.6"/>
				<rect x="5.3" y="10.7" class="st92" width="0.1" height="8.6"/>
				<rect x="5.4" y="10.7" class="st93" width="0.1" height="8.6"/>
				<rect x="5.4" y="10.7" class="st94" width="0.1" height="8.6"/>
				<rect x="5.5" y="10.7" class="st95" width="0.1" height="8.6"/>
				<rect x="5.6" y="10.7" class="st96" width="0.1" height="8.6"/>
				<rect x="5.6" y="10.7" class="st97" width="0.1" height="8.6"/>
				<rect x="5.7" y="10.7" class="st98" width="0.1" height="8.6"/>
				<rect x="5.7" y="10.7" class="st99" width="0.1" height="8.6"/>
				<rect x="5.8" y="10.7" class="st100" width="0.1" height="8.6"/>
				<rect x="5.9" y="10.7" class="st101" width="0.1" height="8.6"/>
				<rect x="5.9" y="10.7" class="st102" width="0.1" height="8.6"/>
				<rect x="6" y="10.7" class="st103" width="0.1" height="8.6"/>
				<rect x="6" y="10.7" class="st104" width="0.1" height="8.6"/>
				<rect x="6.1" y="10.7" class="st105" width="0.1" height="8.6"/>
				<rect x="6.1" y="10.7" class="st106" width="0.1" height="8.6"/>
				<rect x="6.2" y="10.7" class="st107" width="0.1" height="8.6"/>
				<rect x="6.3" y="10.7" class="st108" width="0.1" height="8.6"/>
				<rect x="6.3" y="10.7" class="st109" width="0.1" height="8.6"/>
				<rect x="6.4" y="10.7" class="st110" width="0.1" height="8.6"/>
				<rect x="6.4" y="10.7" class="st111" width="0.1" height="8.6"/>
				<rect x="6.5" y="10.7" class="st112" width="0.1" height="8.6"/>
				<rect x="6.6" y="10.7" class="st113" width="0.1" height="8.6"/>
				<rect x="6.6" y="10.7" class="st114" width="0.1" height="8.6"/>
				<rect x="6.7" y="10.7" class="st115" width="0.1" height="8.6"/>
				<rect x="6.7" y="10.7" class="st116" width="0.1" height="8.6"/>
				<rect x="6.8" y="10.7" class="st117" width="0.1" height="8.6"/>
				<rect x="6.9" y="10.7" class="st118" width="0.1" height="8.6"/>
				<rect x="6.9" y="10.7" class="st119" width="0.1" height="8.6"/>
				<rect x="7" y="10.7" class="st120" width="0.1" height="8.6"/>
				<rect x="7" y="10.7" class="st121" width="0.1" height="8.6"/>
				<rect x="7.1" y="10.7" class="st122" width="0.1" height="8.6"/>
				<rect x="7.2" y="10.7" class="st123" width="0.1" height="8.6"/>
				<path class="st123" d="M7.2,19.3v-8.6V19.3z"/>
			</g>
		</g>
		<g>
			<path class="st1" d="M5.6,19.3c0,0-2.3-2.6,0.6-5.5c0,0,3-2.5,2.3-5.6c0,0-0.4-1.7-1-2c2,1.1,3.3,3,3.6,5.2
				C11.1,11.5,11.6,15.7,5.6,19.3z"/>
		</g>
		<g>
			<path class="st1" d="M5,19c0,0-4.5-3-1.1-7.4c0,0,3-3.8,3-6.6c0,0-0.1-3.7-1.1-4.9c0.2,3-1.1,5.9-3.4,7.8C2.4,7.9-4.5,13.2,5,19z
				"/>
		</g>
	</g>
</g>
</svg>
